<svg width="1258" height="788" viewBox="0 0 1258 788" fill="none" xmlns="http://www.w3.org/2000/svg">
<path d="M512.814 786.461L117.258 104.673L-101 103.915L294.367 785.893L512.814 786.461Z" fill="url(#paint0_linear_861_3525)" fill-opacity="0.14"/>
<path d="M1257.47 -100.242L1032.38 -101L672.099 514.124L554.721 309.588L315.415 308.83L602.696 785.325L603.644 786.84L737.329 787.219L1257.47 -100.242Z" fill="url(#paint1_linear_861_3525)" fill-opacity="0.14"/>
<path d="M316.302 309.333L554.431 310.087L671.665 514.373L672.094 515.121L672.53 514.377L1032.67 -100.499L1256.6 -99.7454L737.043 786.718L603.922 786.341L603.124 785.066L603.12 785.059L316.302 309.333ZM-100.13 104.418L116.969 105.172L511.945 785.959L294.655 785.394L-100.13 104.418Z" stroke="url(#paint2_linear_861_3525)" stroke-opacity="0.12"/>
<defs>
<linearGradient id="paint0_linear_861_3525" x1="578.234" y1="-101" x2="578.234" y2="787.219" gradientUnits="userSpaceOnUse">
<stop/>
<stop offset="1" stop-opacity="0"/>
</linearGradient>
<linearGradient id="paint1_linear_861_3525" x1="578.234" y1="-101" x2="578.234" y2="787.219" gradientUnits="userSpaceOnUse">
<stop/>
<stop offset="1" stop-opacity="0"/>
</linearGradient>
<linearGradient id="paint2_linear_861_3525" x1="282.915" y1="71.6181" x2="484.216" y2="573.285" gradientUnits="userSpaceOnUse">
<stop stop-color="white"/>
<stop offset="0.895883" stop-color="white" stop-opacity="0"/>
</linearGradient>
</defs>
</svg>
