<svg width="38" height="38" viewBox="0 0 38 38" fill="none" xmlns="http://www.w3.org/2000/svg">
<mask id="path-1-inside-1_964_1711" fill="white">
<path fill-rule="evenodd" clip-rule="evenodd" d="M29.6273 0H0V38H38V8.17017L29.6273 0Z"/>
</mask>
<path d="M0 0V-1H-1V0H0ZM29.6273 0L30.3257 -0.715712L30.0343 -1H29.6273V0ZM0 38H-1V39H0V38ZM38 38V39H39V38H38ZM38 8.17017H39V7.74876L38.6984 7.45446L38 8.17017ZM0 1H29.6273V-1H0V1ZM1 38V0H-1V38H1ZM38 37H0V39H38V37ZM37 8.17017V38H39V8.17017H37ZM38.6984 7.45446L30.3257 -0.715712L28.9289 0.715712L37.3016 8.88588L38.6984 7.45446Z" fill="#0F0F0F" mask="url(#path-1-inside-1_964_1711)"/>
<path fill-rule="evenodd" clip-rule="evenodd" d="M27 19.5453C27 15.3785 23.6417 12 19.5 12C15.3583 12 12 15.3785 12 19.5453C12 23.3112 14.7422 26.4328 18.3281 26.9993V21.727H16.4233V19.5453H18.3281V17.883C18.3281 15.9923 19.4481 14.947 21.161 14.947C21.9817 14.947 22.8402 15.0946 22.8402 15.0946V16.9516H21.894C20.9628 16.9516 20.6715 17.533 20.6715 18.1306V19.5453H22.7515L22.4193 21.727H20.6719V27C24.2578 26.4338 27 23.3122 27 19.5453Z" fill="#0F0F0F"/>
</svg>
