<svg width="14" height="14" viewBox="0 0 14 14" fill="none" xmlns="http://www.w3.org/2000/svg">
<path d="M3.15993 4.60156H0.234375V13.931H3.15993V4.60156Z" fill="#0F0F0F"/>
<path d="M11.0735 4.4014C10.9656 4.38792 10.851 4.38117 10.7364 4.37443C9.09839 4.30702 8.1749 5.27771 7.85133 5.69565C7.7637 5.81024 7.72325 5.87765 7.72325 5.87765V4.63059H4.92578V13.96H7.72325H7.85133C7.85133 13.0095 7.85133 12.0658 7.85133 11.1153C7.85133 10.603 7.85133 10.0907 7.85133 9.5784C7.85133 8.94476 7.80415 8.27067 8.12097 7.69095C8.3906 7.20561 8.87594 6.96294 9.42196 6.96294C11.0398 6.96294 11.0735 8.42571 11.0735 8.56053C11.0735 8.56727 11.0735 8.57401 11.0735 8.57401V14.0004H13.999V7.9134C13.999 5.83047 12.9407 4.60362 11.0735 4.4014Z" fill="#0F0F0F"/>
<path d="M1.6987 3.39741C2.63687 3.39741 3.39741 2.63687 3.39741 1.69871C3.39741 0.760536 2.63687 0 1.6987 0C0.760533 0 0 0.760536 0 1.69871C0 2.63687 0.760533 3.39741 1.6987 3.39741Z" fill="#0F0F0F"/>
</svg>
