<svg width="158" height="37" viewBox="0 0 158 37" fill="none" xmlns="http://www.w3.org/2000/svg">
<path d="M53.9275 12.9723V23.4487L42.9243 11.9473V28.0493H45.2033V17.4946L56.2065 28.9647V12.9723H53.9275Z" fill="white"/>
<path d="M81.8232 12.9723L77.5943 23.4252L73.4201 12.9723H70.9297L77.5394 29.1838L84.3137 12.9723H81.8232Z" fill="white"/>
<path d="M68.6507 28.0493H68.6742L68.6507 28.0414V28.0493Z" fill="white"/>
<path d="M104.738 14.8188C106.148 14.8188 107.503 15.3665 108.826 16.4697V13.7782C107.557 13.0505 106.25 12.6828 104.895 12.6828C102.412 12.6828 100.392 13.5982 98.8332 15.4447C97.5645 16.9469 96.9302 18.6604 96.9302 20.5851C96.9302 22.7289 97.6898 24.5519 99.2091 26.0698C100.736 27.572 102.577 28.3231 104.73 28.3231C106.163 28.3231 107.534 27.9554 108.834 27.2121V24.4658C108.466 24.7788 108.106 25.0448 107.777 25.2639C107.44 25.483 107.119 25.6629 106.806 25.7959C106.242 26.0541 105.56 26.1871 104.762 26.1871C103.211 26.1871 101.903 25.6395 100.83 24.5597C99.7652 23.4722 99.2248 22.1421 99.2248 20.5616C99.2248 18.9812 99.7573 17.6041 100.83 16.501C101.895 15.3899 103.203 14.8344 104.746 14.8344" fill="white"/>
<path d="M122.696 24.5441C121.607 25.6316 120.276 26.1793 118.694 26.1793C117.229 26.1793 115.945 25.6395 114.833 24.5676C113.713 23.4957 113.149 22.1265 113.149 20.4599C113.149 18.7934 113.69 17.5416 114.77 16.4618C115.851 15.3665 117.175 14.8266 118.749 14.8266C120.323 14.8266 121.646 15.3743 122.719 16.4618C123.792 17.5494 124.325 18.8951 124.325 20.499C124.325 22.103 123.784 23.4331 122.696 24.5363M124.301 14.9909C122.766 13.4574 120.918 12.6906 118.772 12.6906C116.626 12.6906 114.731 13.4496 113.18 14.9674C111.622 16.4931 110.847 18.3161 110.847 20.4365C110.847 22.8541 111.7 24.8023 113.408 26.2967C114.958 27.6424 116.705 28.3153 118.655 28.3153C120.855 28.3153 122.735 27.5564 124.293 26.0385C125.844 24.5284 126.619 22.6898 126.619 20.5225C126.619 18.3553 125.844 16.5244 124.301 14.9909Z" fill="white"/>
<path d="M94.565 28.0493H94.5885L94.5572 28.0414L94.565 28.0493Z" fill="white"/>
<path d="M150.02 24.4815C149.472 24.9744 148.861 25.3343 148.179 25.5612C147.506 25.7803 146.652 25.8898 145.634 25.8898H144.608V15.0926H145.634C147.576 15.0926 149.049 15.5464 150.043 16.4618C151.147 17.4946 151.704 18.8325 151.704 20.4834C151.704 22.1343 151.147 23.4565 150.028 24.4737M151.664 14.8892C150.897 14.185 150.043 13.6843 149.096 13.3948C148.218 13.0975 147.02 12.941 145.501 12.941H142.337V28.018H145.462C146.989 28.018 148.172 27.8771 149.009 27.5955C149.902 27.3138 150.756 26.8131 151.57 26.1011C153.191 24.6693 154.006 22.7915 154.006 20.4834C154.006 18.1753 153.223 16.3053 151.672 14.8892" fill="white"/>
<path d="M136.471 23.5583L139.612 28.0258H136.847L134.075 24.0825H133.221V22.0013H134.114C136.041 22.0013 137.599 20.4365 137.599 18.5196C137.599 16.6027 136.033 15.0379 134.114 15.0379H131.749V28.0336H129.47V12.9567H134.106C137.176 12.9567 139.674 15.4525 139.674 18.5196C139.674 20.7494 138.359 22.6741 136.463 23.5583" fill="white"/>
<path d="M68.6507 28.104H68.6742L68.6507 28.0962V28.104Z" fill="white"/>
<path d="M94.565 28.104H94.5885L94.5572 28.0962L94.565 28.104Z" fill="white"/>
<path d="M30.5584 37L15.4593 0L0 37H3.8844L13.1334 33.4635L8.86522 31.8361L5.66999 33.0567L7.00917 29.7627L25.977 37H30.5584ZM15.3575 9.1698L24.6848 32.5325L8.40317 26.3202L15.3575 9.1698Z" fill="white"/>
<path d="M156.637 15.0144L157.029 15.5699H156.684L156.34 15.077H156.23V14.8188H156.34C156.583 14.8188 156.77 14.6232 156.77 14.3885C156.77 14.1537 156.575 13.9581 156.34 13.9581H156.042V15.5777H155.76V13.6999H156.34C156.723 13.6999 157.037 14.0129 157.037 14.3963C157.037 14.6701 156.872 14.9127 156.637 15.0222V15.0144Z" fill="white"/>
<path d="M156.324 16.321C155.4 16.321 154.648 15.5699 154.648 14.6466C154.648 13.7234 155.4 12.9723 156.324 12.9723C157.248 12.9723 158 13.7234 158 14.6466C158 15.5699 157.248 16.321 156.324 16.321ZM156.324 13.254C155.557 13.254 154.93 13.8799 154.93 14.6466C154.93 15.4134 155.557 16.0393 156.324 16.0393C157.092 16.0393 157.718 15.4134 157.718 14.6466C157.718 13.8799 157.092 13.254 156.324 13.254Z" fill="white"/>
<path d="M72.3707 28.1432L65.7296 11.8691L58.9318 28.1432H61.4379L65.6826 17.6511L67.9615 23.3548H65.6826L64.6958 25.7881H68.9326L69.8724 28.1432H72.3707Z" fill="white"/>
<path d="M96.0374 28.1432L89.3963 11.8691L82.6064 28.1432H85.1046L89.3493 17.6511L91.6283 23.3548H89.3493L88.3625 25.7881H92.5994L93.5391 28.1432H96.0374Z" fill="white"/>
</svg>
