<?xml version="1.0" encoding="UTF-8"?> <svg xmlns="http://www.w3.org/2000/svg" width="264" height="38" viewBox="0 0 264 38" fill="none"><path d="M26.025 37.3174L9.25521 8.92909L0 8.90174L16.7642 37.2901L26.025 37.3174Z" fill="white"></path><path d="M57.5933 0.394542L48.0536 0.367188L32.7788 25.9818L27.797 17.4636L17.6547 17.4308L29.8388 37.2736L29.8723 37.3284L35.5459 37.3448L57.5933 0.394542Z" fill="white"></path><path d="M74.2586 26.4795L72.1553 19.2798L70.4538 19.2743L68.306 26.4631L66.5319 19.2634L64.1609 19.2525L67.2349 30.692L69.1261 30.6975L71.2906 23.7769L73.4106 30.7084L75.3074 30.7139L78.465 19.2962L76.094 19.2907L74.2586 26.4795Z" fill="white"></path><path d="M80.6974 30.7305L88.3627 30.7524L88.3738 28.7665L82.9791 28.7501L82.9847 25.9599L87.5816 25.9763L87.5872 23.9904L82.9903 23.974L83.0015 21.2987L88.3961 21.3151L88.4017 19.3237L80.7365 19.3019L80.6974 30.7305Z" fill="white"></path><path d="M97.9037 24.8603C97.4964 24.4882 96.8047 24.2366 95.8228 24.0943L94.4504 23.8974C93.993 23.8317 93.6638 23.7114 93.4685 23.5363C93.2733 23.3612 93.1506 23.2081 93.1004 23.0768C93.0501 22.9455 93.0278 22.7977 93.0278 22.6281C93.0278 22.2014 93.184 21.8513 93.4909 21.5887C93.7977 21.3206 94.244 21.1893 94.8298 21.1893C95.2761 21.1893 95.7056 21.2495 96.1129 21.3589C96.5201 21.4738 96.8883 21.6817 97.2119 21.9771L98.6568 20.5875C98.1547 20.1061 97.608 19.7614 97.0167 19.559C96.4253 19.3566 95.7168 19.2526 94.9023 19.2472C93.6471 19.2472 92.6596 19.559 91.9344 20.1936C91.2091 20.8282 90.841 21.6598 90.841 22.6993C90.841 23.6512 91.1031 24.3843 91.6331 24.904C92.1631 25.4238 92.9274 25.7575 93.9204 25.8943L95.3263 26.0912C95.5773 26.124 95.7837 26.1733 95.9455 26.2444C96.1073 26.3155 96.2747 26.4304 96.4532 26.5891C96.6261 26.7477 96.7154 27.0377 96.7098 27.4535C96.7098 28.3944 96.0181 28.8595 94.6457 28.8595C94.0655 28.8595 93.5411 28.7829 93.0669 28.6297C92.5927 28.4765 92.1799 28.2303 91.834 27.8911L90.3612 29.33C90.9135 29.888 91.5271 30.2764 92.2022 30.5062C92.8772 30.7305 93.675 30.8454 94.6011 30.8509C95.8674 30.8509 96.8995 30.55 97.7084 29.9372C98.5174 29.3245 98.9246 28.482 98.9246 27.3987C98.9246 26.8735 98.8577 26.414 98.7182 26.0091C98.5787 25.6098 98.3054 25.2213 97.8981 24.8548L97.9037 24.8603Z" fill="white"></path><path d="M109.402 19.3894L101.051 19.362L101.045 21.3534L104.086 21.3589L104.058 30.8016L106.328 30.8071L106.356 21.3644L109.397 21.3753L109.402 19.3894Z" fill="white"></path><path d="M122.571 30.8563L122.604 19.4277L120.334 19.4222L117.327 25.5824L114.303 19.4003L112.066 19.3949L112.033 30.8235L114.303 30.829L114.32 24.1655L116.546 28.4984L118.085 28.5039L120.323 24.1819L120.3 30.8509L122.571 30.8563Z" fill="white"></path><path d="M133.151 29.7184C133.687 29.1987 134.016 28.6242 134.138 28.0005C134.261 27.3769 134.323 26.4304 134.328 25.1721C134.334 23.9138 134.272 23.0056 134.15 22.3601C134.027 21.7145 133.726 21.1565 133.257 20.6915C132.783 20.2264 132.292 19.8872 131.779 19.6793C131.265 19.4715 130.691 19.362 130.049 19.362C129.408 19.362 128.8 19.4605 128.292 19.6684C127.784 19.8763 127.293 20.21 126.819 20.675C126.345 21.1401 126.044 21.6872 125.921 22.3218C125.798 22.9564 125.737 23.9029 125.731 25.1502C125.731 26.4085 125.781 27.355 125.893 27.9787C126.005 28.6023 126.3 29.1549 126.78 29.6254C127.26 30.0959 127.751 30.4351 128.264 30.6484C128.777 30.8563 129.357 30.9657 130.01 30.9657C130.663 30.9657 131.26 30.8673 131.762 30.6594C132.264 30.4515 132.727 30.1396 133.157 29.7239L133.151 29.7184ZM130.016 28.9689C129.396 28.9689 128.933 28.7993 128.638 28.4656C128.337 28.1318 128.158 27.7762 128.091 27.3987C128.024 27.0212 127.996 26.2663 128.002 25.1447C128.002 24.056 128.041 23.312 128.113 22.9072C128.186 22.5078 128.32 22.1959 128.526 21.9771C128.727 21.7583 128.95 21.5942 129.196 21.4902C129.441 21.3863 129.72 21.3315 130.038 21.3315C130.646 21.3315 131.132 21.5394 131.489 21.9443C131.717 22.2014 131.868 22.5297 131.946 22.9236C132.019 23.3175 132.058 24.0615 132.052 25.1502C132.052 26.1842 132.007 26.9173 131.924 27.344C131.84 27.7708 131.656 28.1482 131.366 28.471C131.076 28.7938 130.624 28.9579 130.016 28.9579V28.9689Z" fill="white"></path><path d="M143.608 19.4988L143.586 26.9118C143.586 27.5738 143.402 28.0881 143.034 28.4546C142.666 28.8212 142.175 29.0072 141.555 29.0017C140.936 28.9962 140.445 28.8102 140.088 28.4382C139.731 28.0607 139.553 27.5519 139.553 26.8954L139.575 19.4769H137.304L137.282 26.972C137.282 28.1701 137.684 29.1385 138.498 29.877C139.313 30.6156 140.328 30.9876 141.55 30.9931C142.783 30.9931 143.804 30.632 144.618 29.8989C145.433 29.1658 145.84 28.1975 145.846 26.9994L145.868 19.4988H143.608Z" fill="white"></path><path d="M151.476 23.9357L156.062 30.9548L158.087 30.9603L158.12 19.5317L155.85 19.5262L155.828 26.5125L151.242 19.5152L149.217 19.5043L149.178 30.9329L151.454 30.9439L151.476 23.9357Z" fill="white"></path><path d="M163.793 30.9767L166.063 30.9822L166.091 21.5449L169.131 21.5504L169.137 19.5645L160.786 19.5426L160.78 21.5285L163.82 21.5394L163.793 30.9767Z" fill="white"></path><path d="M181.47 29.5379C181.821 29.1713 182.072 28.7665 182.217 28.3288C182.362 27.8966 182.435 27.3659 182.435 26.7587V24.8275L178.306 24.8165V25.763L181.375 25.7739V26.693C181.369 27.5957 181.101 28.3671 180.583 28.9908C180.064 29.609 179.327 29.9154 178.39 29.9154C177.988 29.9154 177.598 29.8388 177.241 29.691C176.878 29.5433 176.516 29.2862 176.147 28.9306C175.79 28.5805 175.584 28.1209 175.528 27.5574C175.472 26.983 175.444 26.135 175.45 25.0518C175.45 23.7989 175.506 22.8962 175.612 22.3656C175.712 21.8458 176.002 21.348 176.477 20.8884C176.945 20.4343 177.609 20.2046 178.44 20.2046C179.199 20.2046 179.846 20.4289 180.365 20.8611C180.884 21.2987 181.23 21.8951 181.391 22.6446L181.408 22.7212H182.474L182.451 22.6118C182.267 21.5887 181.81 20.7681 181.085 20.1663C180.359 19.5645 179.472 19.2581 178.44 19.2581C177.291 19.2581 176.348 19.6028 175.64 20.2866C174.937 20.9705 174.546 21.6544 174.485 22.3163C174.424 22.9564 174.39 23.8755 174.39 25.0518C174.39 26.4468 174.44 27.4535 174.552 28.0443C174.663 28.6461 174.948 29.1713 175.389 29.6035C175.824 30.0302 176.304 30.353 176.817 30.5609C177.33 30.7633 177.86 30.8728 178.396 30.8728C178.976 30.8728 179.545 30.7579 180.086 30.5226C180.627 30.2874 181.096 29.9646 181.481 29.5543L181.47 29.5379Z" fill="white"></path><path d="M192.115 26.9501C192.115 27.8693 191.836 28.6024 191.3 29.1385C190.765 29.6746 190.04 29.9427 189.147 29.9427C188.254 29.9427 187.535 29.6582 186.999 29.1111C186.464 28.5641 186.196 27.831 186.196 26.9337L186.218 19.3511H185.153L185.13 27.0377C185.13 28.1647 185.504 29.1002 186.246 29.8114C186.988 30.5226 187.964 30.8837 189.141 30.8892C190.318 30.8892 191.295 30.5336 192.042 29.8278C192.79 29.1221 193.169 28.1866 193.175 27.0596L193.197 19.3675H192.132L192.109 26.9447L192.115 26.9501Z" fill="white"></path><path d="M200.026 19.4551L200.004 19.3949H199.094L194.821 30.7032L194.771 30.8345H195.903L196.902 28.099L202.129 28.1154L203.111 30.8618H204.243L200.015 19.466L200.026 19.4551ZM201.783 27.158L197.264 27.1471L199.546 20.8994L201.789 27.1635L201.783 27.158Z" fill="white"></path><path d="M213.151 24.6633C213.636 24.1217 213.888 23.4105 213.888 22.557C213.888 21.5832 213.57 20.8064 212.939 20.2538C212.309 19.7067 211.494 19.4277 210.524 19.4222L206.066 19.4113L206.033 30.8618H207.098L207.115 25.6754L210.094 25.6864L212.828 30.8837H214.066L211.305 25.6645C212.08 25.5113 212.705 25.1776 213.162 24.6633H213.151ZM207.126 20.3632L210.406 20.3742C211.148 20.3742 211.745 20.5656 212.18 20.9322C212.61 21.2987 212.828 21.8458 212.828 22.5625C212.828 23.2901 212.604 23.8372 212.175 24.1983C211.74 24.5594 211.137 24.7399 210.395 24.7399L207.115 24.729L207.126 20.3632Z" fill="white"></path><path d="M219.34 19.4496L215.066 30.7579L215.016 30.8892H216.154L217.153 28.1537L222.38 28.1701L223.362 30.9165H224.494L220.243 19.4605H219.334L219.34 19.4496ZM222.029 27.2127L217.51 27.2018L219.791 20.9541L222.034 27.2182L222.029 27.2127Z" fill="white"></path><path d="M233.755 29.0455L227.35 19.5207L227.322 19.4769L226.307 19.4715L226.273 30.922H227.333L227.361 21.3534L233.766 30.9001L233.794 30.9439H234.814L234.848 19.4933H233.782L233.755 29.0455Z" fill="white"></path><path d="M236.902 20.4507L240.31 20.4617L240.277 30.9603L241.342 30.9657L241.376 20.4617L244.801 20.4726V19.5262L236.902 19.4988V20.4507Z" fill="white"></path><path d="M246.822 30.9822L253.962 31.004L253.968 30.0521L247.887 30.0357L247.904 25.6864L253.081 25.7028V24.7508L247.904 24.7399L247.921 20.4836L253.996 20.5L254.001 19.5535L246.861 19.5316L246.822 30.9822Z" fill="white"></path><path d="M263.613 20.5274V19.5809L256.472 19.559L256.439 31.0095L263.58 31.0314L263.585 30.085L257.504 30.0631L257.515 25.7137L262.698 25.7301V24.7837L257.521 24.7673L257.532 20.5109L263.613 20.5274Z" fill="white"></path></svg> 