<?xml version="1.0" encoding="UTF-8"?> <svg xmlns="http://www.w3.org/2000/svg" width="20" height="21" viewBox="0 0 20 21" fill="none"><path d="M10.0059 2.30113C12.6793 2.30113 12.9959 2.31285 14.0473 2.35974C15.0244 2.40272 15.5521 2.56681 15.9038 2.70356C16.369 2.88328 16.7051 3.10207 17.053 3.4498C17.4047 3.80143 17.6197 4.13352 17.7995 4.59846C17.9363 4.95009 18.1004 5.48144 18.1434 6.45429C18.1903 7.50918 18.2021 7.82565 18.2021 10.4941C18.2021 13.1665 18.1903 13.483 18.1434 14.534C18.1004 15.5107 17.9363 16.0382 17.7995 16.3898C17.6197 16.8548 17.4008 17.1908 17.053 17.5385C16.7012 17.8901 16.369 18.105 15.9038 18.2847C15.5521 18.4215 15.0205 18.5856 14.0473 18.6285C12.992 18.6754 12.6754 18.6871 10.0059 18.6871C7.33242 18.6871 7.01583 18.6754 5.96443 18.6285C4.9873 18.5856 4.45964 18.4215 4.10788 18.2847C3.64276 18.105 3.30662 17.8862 2.95876 17.5385C2.607 17.1869 2.39203 16.8548 2.21223 16.3898C2.07543 16.0382 1.91128 15.5068 1.86828 14.534C1.82138 13.4791 1.80965 13.1626 1.80965 10.4941C1.80965 7.82174 1.82138 7.50527 1.86828 6.45429C1.91128 5.47753 2.07543 4.95009 2.21223 4.59846C2.39203 4.13352 2.6109 3.79752 2.95876 3.4498C3.31053 3.09816 3.64276 2.88328 4.10788 2.70356C4.45964 2.56681 4.99121 2.40272 5.96443 2.35974C7.01583 2.31285 7.33242 2.30113 10.0059 2.30113ZM10.0059 0.5C7.28943 0.5 6.94938 0.511721 5.88235 0.558605C4.81923 0.605489 4.08833 0.777398 3.45515 1.02354C2.79461 1.2814 2.23569 1.62131 1.68067 2.18002C1.12175 2.73481 0.781708 3.29351 0.523744 3.94989C0.277506 4.58674 0.105531 5.31344 0.0586281 6.37615C0.0117256 7.44667 0 7.78658 0 10.502C0 13.2173 0.0117256 13.5572 0.0586281 14.6239C0.105531 15.6866 0.277506 16.4172 0.523744 17.0501C0.781708 17.7104 1.12175 18.2691 1.68067 18.8239C2.23569 19.3787 2.79461 19.7225 3.45124 19.9765C4.08833 20.2226 4.81532 20.3945 5.87844 20.4414C6.94548 20.4883 7.28552 20.5 10.002 20.5C12.7184 20.5 13.0584 20.4883 14.1255 20.4414C15.1886 20.3945 15.9195 20.2226 16.5527 19.9765C17.2093 19.7225 17.7682 19.3787 18.3232 18.8239C18.8782 18.2691 19.2222 17.7104 19.4763 17.054C19.7225 16.4172 19.8945 15.6905 19.9414 14.6278C19.9883 13.5611 20 13.2212 20 10.5059C20 7.79049 19.9883 7.45058 19.9414 6.38396C19.8945 5.32125 19.7225 4.59064 19.4763 3.95771C19.23 3.29351 18.89 2.73481 18.3311 2.18002C17.776 1.62522 17.2171 1.2814 16.5605 1.02745C15.9234 0.781305 15.1964 0.609396 14.1333 0.562512C13.0623 0.511721 12.7223 0.5 10.0059 0.5Z" fill="white"></path><path d="M10.0059 5.36423C7.16826 5.36423 4.86613 7.66546 4.86613 10.502C4.86613 13.3384 7.16826 15.6397 10.0059 15.6397C12.8435 15.6397 15.1456 13.3384 15.1456 10.502C15.1456 7.66546 12.8435 5.36423 10.0059 5.36423ZM10.0059 13.8346C8.16494 13.8346 6.67188 12.3422 6.67188 10.502C6.67188 8.66175 8.16494 7.16927 10.0059 7.16927C11.8468 7.16927 13.3398 8.66175 13.3398 10.502C13.3398 12.3422 11.8468 13.8346 10.0059 13.8346Z" fill="white"></path><path d="M16.5488 5.16108C16.5488 5.82527 16.0094 6.36053 15.3488 6.36053C14.6844 6.36053 14.1489 5.82137 14.1489 5.16108C14.1489 4.49689 14.6883 3.96162 15.3488 3.96162C16.0094 3.96162 16.5488 4.50079 16.5488 5.16108Z" fill="white"></path></svg> 