<?xml version="1.0" encoding="UTF-8"?> <svg xmlns="http://www.w3.org/2000/svg" width="54" height="59" viewBox="0 0 54 59" fill="none"><g opacity="0.2"><path d="M27.0308 32.6006C28.9527 32.6006 30.5108 31.0426 30.5108 29.1206C30.5108 27.1987 28.9527 25.6406 27.0308 25.6406C25.1088 25.6406 23.5508 27.1987 23.5508 29.1206C23.5508 31.0426 25.1088 32.6006 27.0308 32.6006Z" fill="#00A9EF"></path><path d="M19.4414 7.35001L25.7814 1H28.2814L34.6314 7.35001" stroke="white" stroke-width="2" stroke-miterlimit="10"></path><path d="M27.0312 4.16998V20.11" stroke="white" stroke-width="2" stroke-linejoin="bevel"></path><path d="M11.89 46.5203L3.24 44.1503L2 41.9703L4.38 33.3203" stroke="white" stroke-width="2" stroke-miterlimit="10"></path><path d="M5.37891 41.4896L19.2289 33.5996" stroke="white" stroke-width="2" stroke-linejoin="bevel"></path><path d="M42.1797 46.5203L50.8397 44.1503L52.0697 41.9703L49.6997 33.3203" stroke="white" stroke-width="2" stroke-miterlimit="10"></path><path d="M48.6996 41.4896L34.8496 33.5996" stroke="white" stroke-width="2" stroke-linejoin="bevel"></path><path d="M34.6392 51.3203L28.2892 57.6603H25.7892L19.4492 51.3203" stroke="#00A9EF" stroke-width="2" stroke-miterlimit="10"></path><path d="M27.0391 54.4908V38.5508" stroke="#00A9EF" stroke-width="2" stroke-linejoin="bevel"></path><path d="M42.1797 12.1406L50.8397 14.5206L52.0697 16.6906L49.6997 25.3406" stroke="#00A9EF" stroke-width="2" stroke-miterlimit="10"></path><path d="M48.6996 17.1699L34.8496 25.0599" stroke="#00A9EF" stroke-width="2" stroke-linejoin="bevel"></path><path d="M11.89 12.1406L3.24 14.5206L2 16.6906L4.38 25.3406" stroke="#00A9EF" stroke-width="2" stroke-miterlimit="10"></path><path d="M5.37891 17.1699L19.2289 25.0599" stroke="#00A9EF" stroke-width="2" stroke-linejoin="bevel"></path></g></svg> 