<?xml version="1.0" encoding="UTF-8"?> <svg xmlns="http://www.w3.org/2000/svg" width="53" height="65" viewBox="0 0 53 65" fill="none"><g opacity="0.2"><path d="M26.5012 64.5L26.0963 64.3211C5.28095 55.2835 0.910241 38.0815 0.152375 28.6335C-0.179841 24.425 0.131611 12.1784 0.152375 11.6629L0.173137 10.9685L26.5012 0.5L52.8293 10.9685L52.85 11.6629C52.8604 12.1784 53.1822 24.425 52.85 28.6335C52.0922 38.0815 47.7318 55.2835 26.9165 64.3211L26.5116 64.5H26.5012ZM2.20796 12.4099C2.14567 15.1138 1.93803 24.9301 2.21834 28.4546C3.08002 39.344 8.01134 53.9894 26.4908 62.1959C44.9703 53.9894 49.9016 39.344 50.7633 28.4546C51.0436 24.9195 50.8463 15.1033 50.7737 12.4099L26.5012 2.76204L2.20796 12.4099Z" fill="#00A9EF"></path><path d="M32.4555 19.5L26.0054 12.8672L19.5445 19.5L18 17.9256L25.2332 10.5H26.7668L34 17.9256L32.4555 19.5Z" fill="white"></path><path d="M27 11.5H25V53.5H27V11.5Z" fill="white"></path><path d="M43.4806 29.5L37.5 23.7112L31.5194 29.5L30 28.0189L36.7349 21.5H38.2651L45 28.0189L43.4806 29.5Z" fill="white"></path><path d="M38 21.5H36V42.5H38V21.5Z" fill="white"></path><path d="M21.4817 34.5L15.5054 28.7112L9.52907 34.5L8 33.0293L14.7408 26.5H16.2592L23 33.0293L21.4817 34.5Z" fill="white"></path><path d="M17 27.5H15V43.5H17V27.5Z" fill="white"></path></g></svg> 