<?xml version="1.0" encoding="UTF-8"?> <svg xmlns="http://www.w3.org/2000/svg" width="239" height="34" viewBox="0 0 239 34" fill="none"><g opacity="0.2"><path d="M23.5951 33.9748L8.39106 7.87247L0 7.84731L15.199 33.9497L23.5951 33.9748Z" fill="white"></path><path d="M52.2159 0.0251517L43.5669 0L29.7183 23.552L25.2016 15.7198L16.0064 15.6896L27.0528 33.9346L27.0832 33.9849L32.2271 34L52.2159 0.0251517Z" fill="white"></path><path d="M67.3252 24.0096L65.4183 17.3897L63.8757 17.3847L61.9284 23.9945L60.32 17.3746L58.1704 17.3645L60.9573 27.883L62.6719 27.888L64.6344 21.5246L66.5564 27.8981L68.276 27.9031L71.1388 17.4048L68.9892 17.3998L67.3252 24.0096Z" fill="white"></path><path d="M73.1628 27.9183L80.1124 27.9385L80.1225 26.1125L75.2315 26.0974L75.2366 23.5319L79.4043 23.547L79.4094 21.721L75.2416 21.7059L75.2518 19.2461L80.1427 19.2611L80.1478 17.4301L73.1982 17.41L73.1628 27.9183Z" fill="white"></path><path d="M88.7626 22.5208C88.3934 22.1787 87.7662 21.9473 86.876 21.8166L85.6318 21.6355C85.217 21.5751 84.9186 21.4644 84.7415 21.3035C84.5645 21.1425 84.4533 21.0016 84.4077 20.8809C84.3622 20.7602 84.342 20.6244 84.342 20.4684C84.342 20.0761 84.4836 19.7541 84.7618 19.5127C85.04 19.2662 85.4446 19.1454 85.9757 19.1454C86.3803 19.1454 86.7698 19.2008 87.139 19.3014C87.5082 19.407 87.842 19.5982 88.1354 19.8698L89.4454 18.5921C88.9902 18.1494 88.4945 17.8325 87.9584 17.6464C87.4222 17.4603 86.7799 17.3647 86.0414 17.3597C84.9034 17.3597 84.0081 17.6464 83.3506 18.2299C82.6931 18.8134 82.3593 19.5781 82.3593 20.5338C82.3593 21.4091 82.597 22.0832 83.0775 22.561C83.558 23.0389 84.2509 23.3458 85.1512 23.4715L86.4258 23.6526C86.6534 23.6828 86.8406 23.7281 86.9873 23.7935C87.1339 23.8589 87.2857 23.9645 87.4475 24.1104C87.6043 24.2563 87.6853 24.5229 87.6802 24.9052C87.6802 25.7704 87.053 26.198 85.8088 26.198C85.2827 26.198 84.8073 26.1275 84.3774 25.9867C83.9475 25.8458 83.5732 25.6195 83.2596 25.3076L81.9243 26.6306C82.425 27.1437 82.9814 27.5008 83.5934 27.7121C84.2054 27.9183 84.9287 28.024 85.7683 28.029C86.9165 28.029 87.8522 27.7523 88.5856 27.1889C89.319 26.6255 89.6882 25.8509 89.6882 24.8549C89.6882 24.372 89.6275 23.9494 89.501 23.5772C89.3746 23.21 89.1267 22.8528 88.7575 22.5158L88.7626 22.5208Z" fill="white"></path><path d="M99.1877 17.4905L91.616 17.4653L91.6109 19.2964L94.3675 19.3014L94.3422 27.9837L96.4007 27.9888L96.426 19.3064L99.1826 19.3165L99.1877 17.4905Z" fill="white"></path><path d="M111.127 28.034L111.157 17.5257L109.098 17.5207L106.372 23.1848L103.631 17.5005L101.603 17.4955L101.572 28.0039L103.631 28.0089L103.646 21.8819L105.664 25.866L107.06 25.871L109.088 21.897L109.068 28.029L111.127 28.034Z" fill="white"></path><path d="M120.719 26.9877C121.204 26.5098 121.503 25.9817 121.614 25.4082C121.725 24.8347 121.781 23.9645 121.786 22.8075C121.791 21.6505 121.736 20.8155 121.624 20.2219C121.513 19.6284 121.24 19.1153 120.815 18.6877C120.385 18.2601 119.94 17.9482 119.475 17.7571C119.009 17.5659 118.488 17.4653 117.907 17.4653C117.325 17.4653 116.774 17.5559 116.314 17.747C115.853 17.9382 115.408 18.245 114.978 18.6726C114.548 19.1002 114.275 19.6032 114.164 20.1867C114.053 20.7702 113.997 21.6405 113.992 22.7874C113.992 23.9444 114.037 24.8146 114.139 25.3881C114.24 25.9615 114.508 26.4696 114.943 26.9022C115.378 27.3348 115.823 27.6467 116.288 27.8429C116.754 28.034 117.28 28.1346 117.871 28.1346C118.463 28.1346 119.004 28.0441 119.46 27.8529C119.915 27.6618 120.335 27.3751 120.724 26.9928L120.719 26.9877ZM117.876 26.2986C117.315 26.2986 116.895 26.1426 116.627 25.8358C116.354 25.5289 116.192 25.202 116.131 24.8549C116.071 24.5078 116.045 23.8136 116.05 22.7824C116.05 21.7813 116.086 21.0972 116.152 20.725C116.217 20.3578 116.339 20.071 116.526 19.8698C116.708 19.6686 116.91 19.5177 117.133 19.4221C117.355 19.3265 117.608 19.2762 117.897 19.2762C118.448 19.2762 118.888 19.4674 119.212 19.8396C119.419 20.0761 119.556 20.3779 119.626 20.7401C119.692 21.1022 119.728 21.7864 119.723 22.7874C119.723 23.7381 119.682 24.4122 119.606 24.8046C119.53 25.1969 119.363 25.544 119.1 25.8408C118.837 26.1376 118.428 26.2885 117.876 26.2885V26.2986Z" fill="white"></path><path d="M130.2 17.5911L130.18 24.4072C130.18 25.0158 130.013 25.4887 129.679 25.8257C129.345 26.1628 128.9 26.3338 128.339 26.3288C127.777 26.3237 127.332 26.1527 127.008 25.8106C126.685 25.4635 126.523 24.9957 126.523 24.3921L126.543 17.571H124.485L124.464 24.4625C124.464 25.5641 124.828 26.4545 125.567 27.1336C126.305 27.8127 127.226 28.1548 128.334 28.1598C129.451 28.1598 130.377 27.8278 131.115 27.1537C131.854 26.4797 132.223 25.5893 132.228 24.4877L132.248 17.5911H130.2Z" fill="white"></path><path d="M137.333 21.6707L141.491 28.1246L143.327 28.1296L143.357 17.6213L141.298 17.6162L141.278 24.04L137.121 17.6062L135.285 17.5961L135.249 28.1045L137.313 28.1145L137.333 21.6707Z" fill="white"></path><path d="M148.499 28.1447L150.558 28.1497L150.583 19.4724L153.34 19.4775L153.345 17.6514L145.773 17.6313L145.768 19.4573L148.525 19.4674L148.499 28.1447Z" fill="white"></path><path d="M164.526 26.8217C164.845 26.4847 165.072 26.1125 165.204 25.71C165.335 25.3126 165.401 24.8247 165.401 24.2663V22.4906L161.658 22.4806V23.3508L164.44 23.3609V24.206C164.435 25.036 164.192 25.7453 163.722 26.3187C163.251 26.8871 162.584 27.1688 161.734 27.1688C161.37 27.1688 161.016 27.0984 160.692 26.9626C160.363 26.8268 160.035 26.5903 159.701 26.2634C159.377 25.9414 159.19 25.5189 159.139 25.0008C159.089 24.4726 159.064 23.6929 159.069 22.6969C159.069 21.5449 159.119 20.7149 159.215 20.227C159.306 19.7491 159.569 19.2913 159.999 18.8688C160.424 18.4513 161.026 18.24 161.78 18.24C162.468 18.24 163.054 18.4462 163.525 18.8436C163.995 19.2461 164.309 19.7944 164.455 20.4835L164.47 20.554H165.437L165.416 20.4533C165.249 19.5127 164.835 18.7581 164.177 18.2048C163.52 17.6515 162.715 17.3698 161.78 17.3698C160.738 17.3698 159.883 17.6867 159.241 18.3155C158.603 18.9442 158.249 19.573 158.194 20.1817C158.138 20.7703 158.108 21.6154 158.108 22.6969C158.108 23.9796 158.153 24.9052 158.254 25.4485C158.355 26.0018 158.613 26.4847 159.013 26.8821C159.407 27.2745 159.842 27.5713 160.308 27.7624C160.773 27.9485 161.254 28.0491 161.739 28.0491C162.265 28.0491 162.781 27.9435 163.272 27.7272C163.762 27.5109 164.187 27.2141 164.536 26.8368L164.526 26.8217Z" fill="white"></path><path d="M174.177 24.4424C174.177 25.2875 173.925 25.9616 173.439 26.4545C172.953 26.9475 172.296 27.194 171.487 27.194C170.677 27.194 170.025 26.9324 169.539 26.4294C169.054 25.9263 168.811 25.2523 168.811 24.4273L168.831 17.4553H167.865L167.845 24.5229C167.845 25.5591 168.184 26.4193 168.856 27.0733C169.529 27.7272 170.414 28.0592 171.482 28.0642C172.549 28.0642 173.434 27.7373 174.112 27.0884C174.789 26.4394 175.133 25.5793 175.138 24.543L175.159 17.4704H174.193L174.172 24.4374L174.177 24.4424Z" fill="white"></path><path d="M181.35 17.5508L181.33 17.4955H180.505L176.631 27.8932L176.585 28.0139H177.612L178.517 25.4988L183.257 25.5139L184.147 28.0391H185.174L181.34 17.5609L181.35 17.5508ZM182.943 24.6335L178.846 24.6235L180.915 18.8788L182.948 24.6386L182.943 24.6335Z" fill="white"></path><path d="M193.25 22.3397C193.69 21.8417 193.917 21.1878 193.917 20.403C193.917 19.5076 193.629 18.7933 193.057 18.2853C192.486 17.7822 191.747 17.5257 190.867 17.5207L186.826 17.5106L186.796 28.0391H187.762L187.777 23.2703L190.478 23.2804L192.956 28.0592H194.079L191.575 23.2603C192.278 23.1194 192.845 22.8126 193.26 22.3397H193.25ZM187.787 18.3859L190.761 18.3959C191.434 18.3959 191.975 18.572 192.369 18.909C192.759 19.2461 192.956 19.7491 192.956 20.4081C192.956 21.0771 192.754 21.5801 192.364 21.9121C191.97 22.2441 191.424 22.4101 190.751 22.4101L187.777 22.4001L187.787 18.3859Z" fill="white"></path><path d="M198.86 17.5458L194.986 27.9435L194.94 28.0642H195.972L196.878 25.5491L201.617 25.5642L202.507 28.0894H203.534L199.68 17.5559H198.855L198.86 17.5458ZM201.298 24.6838L197.201 24.6738L199.27 18.9292L201.303 24.6889L201.298 24.6838Z" fill="white"></path><path d="M211.929 26.369L206.123 17.6112L206.097 17.571L205.177 17.5659L205.147 28.0944H206.108L206.133 19.2964L211.939 28.0743L211.965 28.1145H212.89L212.921 17.586H211.955L211.929 26.369Z" fill="white"></path><path d="M214.783 18.4663L217.873 18.4764L217.843 28.1296L218.809 28.1346L218.839 18.4764L221.945 18.4865V17.6162L214.783 17.5911V18.4663Z" fill="white"></path><path d="M223.776 28.1497L230.25 28.1699L230.255 27.2946L224.742 27.2795L224.757 23.2804L229.451 23.2955V22.4202L224.757 22.4101L224.773 18.4965L230.281 18.5116L230.286 17.6414L223.812 17.6213L223.776 28.1497Z" fill="white"></path><path d="M239 18.5368V17.6665L232.526 17.6464L232.496 28.1749L238.97 28.195L238.975 27.3248L233.462 27.3047L233.472 23.3055L238.171 23.3206V22.4504L233.477 22.4353L233.487 18.5217L239 18.5368Z" fill="white"></path></g></svg> 