<svg width="18" height="19" viewBox="0 0 18 19" fill="none" xmlns="http://www.w3.org/2000/svg">
<path d="M15.3369 16.1893H12.6698V11.7804C12.6698 10.7291 12.652 9.37566 11.2827 9.37566C9.8936 9.37566 9.68107 10.5211 9.68107 11.7039V16.189H7.01403V7.12254H9.57438V8.36157H9.61022C9.86646 7.89911 10.2367 7.51867 10.6816 7.26077C11.1264 7.00286 11.6292 6.87715 12.1364 6.89702C14.8396 6.89702 15.338 8.77389 15.338 11.2156L15.3369 16.1893ZM4.00472 5.88322C3.69861 5.88328 3.39936 5.78752 3.14481 5.60805C2.89026 5.42858 2.69184 5.17346 2.57465 4.87495C2.45746 4.57644 2.42675 4.24795 2.48641 3.93103C2.54608 3.6141 2.69344 3.32296 2.90985 3.09444C3.12626 2.86591 3.40201 2.71026 3.70223 2.64716C4.00245 2.58407 4.31364 2.61636 4.59647 2.73996C4.8793 2.86356 5.12106 3.07292 5.29117 3.34156C5.46128 3.6102 5.5521 3.92605 5.55216 4.24917C5.5522 4.46372 5.5122 4.67618 5.43445 4.87441C5.35671 5.07264 5.24273 5.25276 5.09904 5.4045C4.95535 5.55624 4.78475 5.67661 4.59699 5.75875C4.40922 5.84089 4.20797 5.88318 4.00472 5.88322ZM5.33824 16.1893H2.66843V7.12254H5.33824V16.1893ZM16.6665 0.00129403H1.32824C0.980105 -0.00285308 0.644652 0.139066 0.395594 0.395866C0.146536 0.652666 0.00424879 1.00334 0 1.37082V17.6289C0.00410337 17.9966 0.146299 18.3475 0.395349 18.6045C0.644398 18.8616 0.979933 19.0038 1.32824 18.9999H16.6665C17.0155 19.0045 17.3519 18.8627 17.602 18.6057C17.852 18.3486 17.9952 17.9973 18 17.6289V1.36965C17.995 1.00144 17.8518 0.650366 17.6017 0.393573C17.3517 0.136779 17.0153 -0.0047353 16.6665 0.000120984" fill="#232729"/>
</svg>
