<svg width="75" height="75" viewBox="0 0 75 75" fill="none" xmlns="http://www.w3.org/2000/svg">
<path d="M71.0525 0.117188L69.9649 1.18494L73.4354 4.64053V6.14098L69.9649 9.6087L71.0031 10.6279L75 6.70479V3.9926L71.0525 0.117188Z" fill="#00A9EF"/>
<path d="M71.6229 4.641V6.1407H62.0159V6.13085H60.5339C53.1097 6.13085 45.9079 7.55779 39.1291 10.373C32.5811 13.092 26.7 16.9841 21.6495 21.9425C16.5997 26.9008 12.6345 32.6745 9.86489 39.103C6.99728 45.758 5.5438 52.8283 5.5438 60.1169H4C4 52.6245 5.4944 45.3556 8.44305 38.5126C11.2906 31.903 15.3662 25.9679 20.558 20.8709C25.7498 15.7739 31.7961 11.7719 38.5278 8.9764C45.498 6.08235 52.9021 4.61523 60.5339 4.61523H62.0159V4.641H71.6229Z" fill="#00A9EF"/>
<path fill-rule="evenodd" clip-rule="evenodd" d="M0 71.2871L2.83008 74.1172H8.23438L11 71.3516V65.9468L8.17041 63.1172H2.89404L0 66.0112V71.2871Z" fill="white"/>
</svg>
