<svg width="25" height="23" viewBox="0 0 25 23" fill="none" xmlns="http://www.w3.org/2000/svg">
<path d="M24.5631 21.6938C24.6185 21.6944 24.6735 21.683 24.7245 21.6603C24.7756 21.6376 24.8217 21.6041 24.8599 21.5618C24.8982 21.5196 24.9278 21.4695 24.9469 21.4147C24.966 21.3599 24.9742 21.3016 24.971 21.2433C24.971 20.9238 24.788 20.7712 24.4124 20.7712H23.8056V22.4439H24.0339V21.7148H24.3143L24.3207 21.7236L24.7559 22.4439H25L24.5318 21.6984L24.5631 21.6938ZM24.2992 21.5263H24.0345V20.9607H24.37C24.5432 20.9607 24.7408 20.9906 24.7408 21.2295C24.7408 21.5043 24.5409 21.5263 24.2978 21.5263H24.2992ZM18.6098 19.5975H15.3736V14.2605C15.3736 12.9878 15.3521 11.3495 13.6905 11.3495C12.005 11.3495 11.7471 12.7361 11.7471 14.1678V19.5972H8.51087V8.62202H11.6176V10.1219H11.6611C11.972 9.56208 12.4213 9.10155 12.9611 8.78935C13.5009 8.47715 14.111 8.32497 14.7264 8.34903C18.0064 8.34903 18.6112 10.621 18.6112 13.5768L18.6098 19.5975ZM4.85936 7.1218C4.48792 7.12187 4.12481 7.00594 3.81594 6.78869C3.50706 6.57144 3.2663 6.26261 3.1241 5.90125C2.98189 5.5399 2.94464 5.14226 3.01703 4.75861C3.08943 4.37496 3.26823 4.02253 3.53083 3.7459C3.79343 3.46926 4.12803 3.28084 4.49231 3.20446C4.8566 3.12808 5.23421 3.16717 5.57739 3.3168C5.92058 3.46642 6.21393 3.71985 6.42034 4.04504C6.62676 4.37024 6.73696 4.75258 6.73703 5.14374C6.73708 5.40345 6.68854 5.66063 6.5942 5.9006C6.49987 6.14056 6.36157 6.35861 6.18721 6.54229C6.01286 6.72597 5.80585 6.87168 5.57802 6.97112C5.35018 7.07055 5.10598 7.12175 4.85936 7.1218ZM6.47746 19.5975H3.23789V8.62202H6.47746V19.5975ZM20.2232 0.00156645H1.6117C1.18927 -0.00345372 0.782225 0.168343 0.480016 0.479207C0.177807 0.79007 0.00515551 1.21457 0 1.65941V21.3402C0.00497906 21.7853 0.17752 22.2101 0.479719 22.5213C0.781918 22.8325 1.18906 23.0046 1.6117 22.9999H20.2232C20.6467 23.0055 21.055 22.8338 21.3584 22.5226C21.6618 22.2115 21.8355 21.7862 21.8413 21.3402V1.658C21.8353 1.21226 21.6615 0.787286 21.3581 0.47643C21.0547 0.165574 20.6465 -0.0057322 20.2232 0.000146454" fill="white"/>
</svg>
