<svg width="38" height="38" viewBox="0 0 38 38" fill="none" xmlns="http://www.w3.org/2000/svg">
<mask id="path-1-inside-1_964_1702" fill="white">
<path fill-rule="evenodd" clip-rule="evenodd" d="M29.6273 0H0V38H38V8.17017L29.6273 0Z"/>
</mask>
<path d="M0 0V-1H-1V0H0ZM29.6273 0L30.3257 -0.715712L30.0343 -1H29.6273V0ZM0 38H-1V39H0V38ZM38 38V39H39V38H38ZM38 8.17017H39V7.74876L38.6984 7.45446L38 8.17017ZM0 1H29.6273V-1H0V1ZM1 38V0H-1V38H1ZM38 37H0V39H38V37ZM37 8.17017V38H39V8.17017H37ZM38.6984 7.45446L30.3257 -0.715712L28.9289 0.715712L37.3016 8.88588L38.6984 7.45446Z" fill="#0F0F0F" mask="url(#path-1-inside-1_964_1702)"/>
<path d="M15.1599 16.6016H12.2344V25.931H15.1599V16.6016Z" fill="#0F0F0F"/>
<path d="M23.0735 16.4014C22.9656 16.3879 22.851 16.3812 22.7364 16.3744C21.0984 16.307 20.1749 17.2777 19.8513 17.6956C19.7637 17.8102 19.7233 17.8777 19.7233 17.8777V16.6306H16.9258V25.96H19.7233H19.8513C19.8513 25.0095 19.8513 24.0658 19.8513 23.1153C19.8513 22.603 19.8513 22.0907 19.8513 21.5784C19.8513 20.9448 19.8041 20.2707 20.121 19.691C20.3906 19.2056 20.8759 18.9629 21.422 18.9629C23.0398 18.9629 23.0735 20.4257 23.0735 20.5605C23.0735 20.5673 23.0735 20.574 23.0735 20.574V26.0004H25.999V19.9134C25.999 17.8305 24.9407 16.6036 23.0735 16.4014Z" fill="#0F0F0F"/>
<path d="M13.6987 15.3974C14.6369 15.3974 15.3974 14.6369 15.3974 13.6987C15.3974 12.7605 14.6369 12 13.6987 12C12.7605 12 12 12.7605 12 13.6987C12 14.6369 12.7605 15.3974 13.6987 15.3974Z" fill="#0F0F0F"/>
</svg>
