<svg width="221" height="31" viewBox="0 0 221 31" fill="none" xmlns="http://www.w3.org/2000/svg">
<g id="Layer_1" clip-path="url(#clip0_861_209)">
<g id="Group">
<path id="Vector" d="M21.818 30.9765L7.75906 7.17723L0 7.1543L14.0542 30.9535L21.818 30.9765Z" fill="white"/>
<path id="Vector_2" d="M48.2831 0.0229324L40.2855 0L27.48 21.4739L23.3035 14.3327L14.8008 14.3052L25.0152 30.9404L25.0433 30.9862L29.7998 31L48.2831 0.0229324Z" fill="white"/>
</g>
<g id="Group_2">
<path id="Vector_3" d="M62.2543 21.8908L60.4911 15.855L59.0647 15.8504L57.264 21.877L55.7768 15.8412L53.7891 15.832L56.3661 25.4224L57.9516 25.4269L59.7662 19.625L61.5434 25.4361L63.1336 25.4407L65.7808 15.8687L63.7931 15.8641L62.2543 21.8908Z" fill="white"/>
<path id="Vector_4" d="M67.6523 25.4542L74.0785 25.4725L74.0878 23.8077L69.5652 23.7939L69.5699 21.4548L73.4237 21.4685L73.4284 19.8037L69.5746 19.7899L69.5839 17.5471L74.1065 17.5609L74.1112 15.8914L67.6851 15.873L67.6523 25.4542Z" fill="white"/>
<path id="Vector_5" d="M82.0771 20.5339C81.7357 20.222 81.1558 20.011 80.3326 19.8917L79.1821 19.7266C78.7986 19.6716 78.5227 19.5707 78.359 19.4239C78.1953 19.2772 78.0924 19.1487 78.0503 19.0387C78.0082 18.9286 77.9895 18.8047 77.9895 18.6626C77.9895 18.3048 78.1204 18.0113 78.3777 17.7911C78.6349 17.5664 79.0091 17.4563 79.5001 17.4563C79.8743 17.4563 80.2344 17.5068 80.5758 17.5985C80.9173 17.6948 81.2259 17.8691 81.4972 18.1168L82.7085 16.9518C82.2876 16.5482 81.8293 16.2593 81.3335 16.0896C80.8377 15.9199 80.2438 15.8327 79.5609 15.8281C78.5086 15.8281 77.6808 16.0896 77.0728 16.6216C76.4648 17.1536 76.1561 17.8508 76.1561 18.7222C76.1561 19.5202 76.3759 20.1348 76.8203 20.5705C77.2646 21.0063 77.9053 21.286 78.7378 21.4007L79.9164 21.5658C80.1269 21.5933 80.2999 21.6346 80.4355 21.6942C80.5712 21.7539 80.7115 21.8502 80.8611 21.9832C81.0061 22.1162 81.081 22.3593 81.0763 22.7078C81.0763 23.4967 80.4963 23.8866 79.3458 23.8866C78.8594 23.8866 78.4198 23.8224 78.0222 23.6939C77.6247 23.5655 77.2786 23.3591 76.9886 23.0748L75.7539 24.281C76.2169 24.7488 76.7314 25.0745 77.2973 25.2671C77.8632 25.4551 78.532 25.5515 79.3084 25.556C80.3701 25.556 81.2353 25.3038 81.9135 24.7901C82.5916 24.2764 82.933 23.5701 82.933 22.662C82.933 22.2217 82.8769 21.8364 82.76 21.497C82.6431 21.1622 82.4139 20.8366 82.0725 20.5293L82.0771 20.5339Z" fill="white"/>
<path id="Vector_6" d="M91.717 15.9468L84.7156 15.9238L84.7109 17.5933L87.2599 17.5979L87.2365 25.5142L89.14 25.5187L89.1634 17.6025L91.7123 17.6117L91.717 15.9468Z" fill="white"/>
<path id="Vector_7" d="M102.757 25.5598L102.785 15.9787L100.881 15.9741L98.3603 21.1385L95.8254 15.9558L93.9499 15.9512L93.9219 25.5323L95.8254 25.5369L95.8394 19.9506L97.7055 23.5831L98.9964 23.5877L100.872 19.9643L100.853 25.5553L102.757 25.5598Z" fill="white"/>
<path id="Vector_8" d="M111.627 24.606C112.076 24.1703 112.352 23.6887 112.454 23.1659C112.557 22.643 112.609 21.8496 112.613 20.7947C112.618 19.7398 112.567 18.9784 112.464 18.4372C112.361 17.896 112.108 17.4282 111.715 17.0383C111.318 16.6485 110.906 16.3641 110.476 16.1898C110.046 16.0156 109.564 15.9238 109.026 15.9238C108.488 15.9238 107.979 16.0064 107.553 16.1807C107.127 16.355 106.716 16.6347 106.318 17.0246C105.921 17.4144 105.668 17.8731 105.565 18.4051C105.462 18.9371 105.411 19.7306 105.406 20.7763C105.406 21.8312 105.448 22.6247 105.542 23.1475C105.635 23.6704 105.883 24.1336 106.286 24.5281C106.688 24.9225 107.099 25.2069 107.53 25.3857C107.96 25.56 108.446 25.6517 108.993 25.6517C109.541 25.6517 110.041 25.5692 110.462 25.3949C110.883 25.2206 111.271 24.9592 111.631 24.6106L111.627 24.606ZM108.998 23.9777C108.479 23.9777 108.091 23.8355 107.843 23.5557C107.59 23.276 107.441 22.9778 107.385 22.6614C107.328 22.3449 107.305 21.712 107.31 20.7717C107.31 19.859 107.343 19.2353 107.403 18.8959C107.464 18.5611 107.576 18.2996 107.749 18.1162C107.918 17.9327 108.105 17.7951 108.311 17.708C108.516 17.6208 108.75 17.575 109.017 17.575C109.527 17.575 109.934 17.7492 110.233 18.0886C110.425 18.3042 110.551 18.5794 110.616 18.9096C110.677 19.2399 110.71 19.8636 110.705 20.7763C110.705 21.6432 110.668 22.2578 110.598 22.6155C110.528 22.9732 110.373 23.2897 110.13 23.5603C109.887 23.8309 109.508 23.9685 108.998 23.9685V23.9777Z" fill="white"/>
<path id="Vector_9" d="M122.283 16.0398H120.394L120.375 22.2545C120.375 22.8095 120.22 23.2406 119.912 23.5479C119.603 23.8552 119.192 24.0111 118.672 24.0065C118.153 24.002 117.742 23.846 117.442 23.5341C117.143 23.2177 116.993 22.7911 116.993 22.2407L117.012 16.0215H115.109L115.09 22.305C115.09 23.3094 115.427 24.1212 116.109 24.7404C116.792 25.3596 117.643 25.6714 118.668 25.676C119.701 25.676 120.557 25.3733 121.24 24.7587C121.923 24.1441 122.264 23.3323 122.269 22.3279L122.288 16.0398H122.283Z" fill="white"/>
<path id="Vector_10" d="M126.989 19.758L130.834 25.6425L132.532 25.6471L132.56 16.0659L130.656 16.0613L130.637 21.9182L126.793 16.0521L125.095 16.043L125.062 25.6241L126.971 25.6333L126.989 19.758Z" fill="white"/>
<path id="Vector_11" d="M137.315 25.6619L139.218 25.6665L139.242 17.7548L141.79 17.7594L141.795 16.0945L134.794 16.0762L134.789 17.7411L137.338 17.7502L137.315 25.6619Z" fill="white"/>
<path id="Vector_12" d="M152.134 24.4559C152.429 24.1486 152.639 23.8092 152.761 23.4423C152.883 23.0799 152.943 22.6351 152.943 22.126V20.5069L149.482 20.4978V21.2912L152.055 21.3004V22.0709C152.05 22.8277 151.826 23.4744 151.391 23.9972C150.956 24.5155 150.338 24.7723 149.553 24.7723C149.216 24.7723 148.888 24.7081 148.589 24.5843C148.285 24.4605 147.981 24.2449 147.672 23.9468C147.373 23.6532 147.2 23.268 147.153 22.7956C147.107 22.314 147.083 21.6031 147.088 20.695C147.088 19.6447 147.135 18.8879 147.223 18.443C147.308 18.0073 147.551 17.5899 147.948 17.2047C148.341 16.824 148.898 16.6314 149.595 16.6314C150.231 16.6314 150.773 16.8194 151.208 17.1817C151.643 17.5486 151.933 18.0486 152.069 18.6769L152.083 18.7411H152.976L152.957 18.6494C152.803 17.7917 152.42 17.1038 151.812 16.5992C151.204 16.0947 150.46 15.8379 149.595 15.8379C148.631 15.8379 147.841 16.1268 147.247 16.7001C146.658 17.2735 146.33 17.8468 146.279 18.4017C146.227 18.9383 146.199 19.7089 146.199 20.695C146.199 21.8645 146.241 22.7084 146.335 23.2038C146.428 23.7083 146.667 24.1486 147.036 24.5109C147.401 24.8687 147.803 25.1393 148.234 25.3136C148.664 25.4833 149.108 25.575 149.557 25.575C150.044 25.575 150.521 25.4787 150.974 25.2814C151.428 25.0842 151.821 24.8136 152.144 24.4696L152.134 24.4559Z" fill="white"/>
<path id="Vector_13" d="M161.059 22.2866C161.059 23.0572 160.825 23.6717 160.376 24.1212C159.927 24.5707 159.319 24.7954 158.571 24.7954C157.822 24.7954 157.219 24.5569 156.77 24.0983C156.321 23.6396 156.096 23.0251 156.096 22.2729L156.115 15.916H155.222L155.203 22.36C155.203 23.3048 155.516 24.0891 156.139 24.6854C156.761 25.2816 157.579 25.5843 158.566 25.5889C159.553 25.5889 160.371 25.2908 160.998 24.6991C161.625 24.1075 161.943 23.3232 161.947 22.3784L161.966 15.9298H161.073L161.054 22.282L161.059 22.2866Z" fill="white"/>
<path id="Vector_14" d="M167.691 16.0016L167.672 15.9512H166.91L163.327 25.4314L163.285 25.5415H164.235L165.072 23.2483L169.454 23.262L170.277 25.5644H171.227L167.681 16.0108L167.691 16.0016ZM169.164 22.4594L165.376 22.4502L167.289 17.2125L169.169 22.464L169.164 22.4594Z" fill="white"/>
<path id="Vector_15" d="M178.694 20.3679C179.101 19.9138 179.312 19.3176 179.312 18.6021C179.312 17.7857 179.045 17.1344 178.517 16.6712C177.988 16.2125 177.305 15.9786 176.492 15.974L172.755 15.9648L172.727 25.5643H173.62L173.634 21.2164L176.131 21.2255L178.423 25.5827H179.461L177.146 21.2072C177.796 21.0788 178.32 20.799 178.704 20.3679H178.694ZM173.643 16.7629L176.393 16.7721C177.015 16.7721 177.516 16.9326 177.881 17.2399C178.241 17.5472 178.423 18.0058 178.423 18.6067C178.423 19.2167 178.236 19.6753 177.876 19.978C177.511 20.2807 177.006 20.4321 176.384 20.4321L173.634 20.4229L173.643 16.7629Z" fill="white"/>
<path id="Vector_16" d="M183.882 15.998L180.3 25.4783L180.258 25.5884H181.212L182.049 23.2951L186.431 23.3089L187.255 25.6113H188.204L184.64 16.0072H183.878L183.882 15.998ZM186.137 22.5063L182.348 22.4971L184.261 17.2593L186.141 22.5108L186.137 22.5063Z" fill="white"/>
<path id="Vector_17" d="M195.967 24.042L190.598 16.0569L190.575 16.0202L189.723 16.0156L189.695 25.6151H190.584L190.607 17.5934L195.976 25.5968L196 25.6335H196.856L196.884 16.034H195.99L195.967 24.042Z" fill="white"/>
<path id="Vector_18" d="M198.605 16.8371L201.463 16.8463L201.435 25.6477L202.328 25.6523L202.356 16.8463L205.228 16.8555V16.062L198.605 16.0391V16.8371Z" fill="white"/>
<path id="Vector_19" d="M206.922 25.6659L212.908 25.6842L212.913 24.8862L207.815 24.8724L207.829 21.2262L212.169 21.24V20.4419L207.829 20.4327L207.843 16.8645L212.936 16.8782L212.941 16.0848L206.955 16.0664L206.922 25.6659Z" fill="white"/>
<path id="Vector_20" d="M220.999 16.9016V16.1082L215.012 16.0898L214.984 25.6893L220.971 25.7077L220.976 24.9142L215.878 24.8959L215.887 21.2496L220.232 21.2634V20.4699L215.892 20.4562L215.901 16.8879L220.999 16.9016Z" fill="white"/>
</g>
</g>
<defs>
<clipPath id="clip0_861_209">
<rect width="221" height="31" fill="white"/>
</clipPath>
</defs>
</svg>
