<svg width="60" height="58" viewBox="0 0 60 58" fill="none" xmlns="http://www.w3.org/2000/svg">
<g opacity="0.2">
<path d="M55.0498 32.43C55.0498 33.74 54.9498 35.03 54.7598 36.28C54.1398 35.96 53.4998 35.73 52.8298 35.56C52.9698 34.53 53.0498 33.49 53.0498 32.43C53.0498 22.72 47.0598 14.39 38.5898 10.91L39.5998 9.16003C48.6698 12.99 55.0498 21.98 55.0498 32.43Z" fill="#00A9EF"/>
<path d="M44.0205 53.2896C39.9705 56.0696 35.0705 57.6896 29.7905 57.6896C24.5105 57.6896 19.7505 56.1096 15.7305 53.4096H18.1605V52.5596C21.5805 54.5496 25.5505 55.6896 29.7905 55.6896C34.5105 55.6896 38.9005 54.2796 42.5705 51.8496C42.7705 52.0896 42.9705 52.3196 43.1905 52.5396C43.4505 52.7996 43.7305 53.0496 44.0205 53.2896Z" fill="#00A9EF"/>
<path d="M6.53125 32.4292C6.53125 32.6992 6.54125 32.9692 6.55125 33.2292H4.55125C4.54125 32.9692 4.53125 32.6992 4.53125 32.4292C4.53125 21.2692 11.8112 11.7892 21.8713 8.44922L22.8912 10.2192C13.4212 13.1692 6.53125 22.0092 6.53125 32.4292Z" fill="#00A9EF"/>
<path d="M0 35.25V53.41H18.16V35.25H0ZM16.16 51.41H2V37.25H16.16V51.41Z" fill="white"/>
<path d="M16.9805 0L21.8705 8.45001L22.8905 10.22L29.7905 22.18L31.4505 19.3H31.4405L36.6805 10.22L37.7005 8.45001L42.5105 0.110001H42.5305L42.6005 0H16.9805ZM35.7305 7.89L34.6905 9.70001L29.7905 18.18L24.8905 9.70001L23.8505 7.89L20.4505 2H39.1305L35.7305 7.89Z" fill="white"/>
<path d="M56.9797 37.9099C56.3097 37.2399 55.5597 36.6999 54.7597 36.2799C54.1397 35.9599 53.4997 35.7299 52.8297 35.5599C49.8197 34.7799 46.4897 35.5599 44.1397 37.9099C42.9197 39.1299 42.1297 40.6199 41.7497 42.1899C41.0297 45.1599 41.8197 48.4199 44.1197 50.7299L44.1397 50.7499C44.4397 51.0499 44.7697 51.3199 45.0997 51.5699C45.3097 51.7299 45.5197 51.8799 45.7297 52.0099C47.1997 52.9399 48.8797 53.3999 50.5597 53.3999C52.8797 53.3999 55.2097 52.5199 56.9797 50.7499C60.5197 47.2099 60.5197 41.4499 56.9797 37.9099ZM55.5597 49.3399C54.2297 50.6699 52.4497 51.4099 50.5597 51.4099C49.3997 51.4099 48.2997 51.1299 47.2997 50.6099C46.6997 50.2999 46.1497 49.8999 45.6497 49.4299C45.6197 49.3899 45.5797 49.3699 45.5497 49.3399C42.7897 46.5799 42.7897 42.0899 45.5497 39.3299C46.9297 37.9499 48.7497 37.2599 50.5597 37.2599C51.2097 37.2599 51.8497 37.3499 52.4797 37.5299C53.1297 37.7099 53.7597 37.9899 54.3397 38.3599C54.7697 38.6299 55.1897 38.9499 55.5597 39.3299C56.8997 40.6599 57.6297 42.4399 57.6297 44.3299C57.6297 46.2199 56.8997 47.9999 55.5597 49.3399Z" fill="white"/>
</g>
</svg>
