<svg width="56" height="42" viewBox="0 0 56 42" fill="none" xmlns="http://www.w3.org/2000/svg">
<g opacity="0.2">
<path d="M47.8083 40.7522L46.5 39.444C56.697 29.247 56.697 12.6478 46.5 2.45084L47.8083 1.14258C58.729 12.0633 58.729 29.8408 47.8083 40.7615V40.7522Z" fill="white"/>
<path d="M8.19054 40.7515C-2.73018 29.8308 -2.73018 12.0533 8.19054 1.13257L9.4988 2.44082C-0.698201 12.6378 -0.698201 29.2369 9.4988 39.4339L8.19054 40.7422V40.7515Z" fill="white"/>
<path d="M42.5114 35.4429L41.2031 34.1346C44.7289 30.6088 46.6681 25.9232 46.6681 20.9314C46.6681 15.9396 44.7289 11.254 41.2031 7.72818L42.5114 6.41992C46.3898 10.2983 48.5238 15.4478 48.5238 20.9314C48.5238 26.4149 46.3898 31.5645 42.5114 35.4429Z" fill="#00A9EF"/>
<path d="M13.489 35.4429C9.6106 31.5645 7.47656 26.4149 7.47656 20.9314C7.47656 15.4478 9.6106 10.2983 13.489 6.41992L14.7972 7.72818C11.2714 11.254 9.33225 15.9396 9.33225 20.9314C9.33225 25.9232 11.2714 30.6088 14.7972 34.1346L13.489 35.4429Z" fill="#00A9EF"/>
<path d="M36.445 30.701L35.1367 29.3928C39.8038 24.7257 39.8038 17.1452 35.1367 12.4782L36.445 11.1699C41.8357 16.5607 41.8357 25.3195 36.445 30.7103V30.701Z" fill="white"/>
<path d="M19.1857 30.7025C13.7949 25.3117 13.7949 16.5529 19.1857 11.1621L20.4939 12.4704C15.8269 17.1374 15.8269 24.7179 20.4939 29.385L19.1857 30.6932V30.7025Z" fill="white"/>
<path d="M27.9984 24.1609C29.7817 24.1609 31.2273 22.7153 31.2273 20.932C31.2273 19.1487 29.7817 17.7031 27.9984 17.7031C26.2152 17.7031 24.7695 19.1487 24.7695 20.932C24.7695 22.7153 26.2152 24.1609 27.9984 24.1609Z" fill="#00A9EF"/>
<path d="M21.0774 16.97H19.2217V12.7483H15V10.8926H20.1495L21.0774 11.8204V16.97Z" fill="white"/>
<path d="M41.8635 11.386H40.0078V6.23644L40.9357 5.30859H46.0852V7.16428H41.8635V11.386Z" fill="#00A9EF"/>
<path d="M10.4914 6.07737H8.63575V1.85569H4.41406V0H9.56359L10.4914 0.927844V6.07737Z" fill="white"/>
<path d="M40.2473 31.2219H35.0978L34.1699 30.2941V25.1445H36.0256V29.3662H40.2473V31.2219Z" fill="white"/>
<path d="M51.4368 41.8821H46.2872L45.3594 40.9542V35.8047H47.2151V40.0264H51.4368V41.8821Z" fill="white"/>
<path d="M15.0011 36.7317H9.85156V34.876H14.0733V30.6543H15.9289V35.8038L15.0011 36.7317Z" fill="#00A9EF"/>
</g>
</svg>
