<svg width="38" height="38" viewBox="0 0 38 38" fill="none" xmlns="http://www.w3.org/2000/svg">
<mask id="path-1-inside-1_964_1717" fill="white">
<path fill-rule="evenodd" clip-rule="evenodd" d="M29.6273 0H0V38H38V8.17017L29.6273 0Z"/>
</mask>
<path d="M0 0V-1H-1V0H0ZM29.6273 0L30.3257 -0.715712L30.0343 -1H29.6273V0ZM0 38H-1V39H0V38ZM38 38V39H39V38H38ZM38 8.17017H39V7.74876L38.6984 7.45446L38 8.17017ZM0 1H29.6273V-1H0V1ZM1 38V0H-1V38H1ZM38 37H0V39H38V37ZM37 8.17017V38H39V8.17017H37ZM38.6984 7.45446L30.3257 -0.715712L28.9289 0.715712L37.3016 8.88588L38.6984 7.45446Z" fill="#0F0F0F" mask="url(#path-1-inside-1_964_1717)"/>
<path d="M20.9285 18.3522L26.5135 12H25.1905L20.339 17.5144L16.467 12H12L17.8565 20.3396L12 27H13.323L18.443 21.1754L22.533 27H27M13.8005 12.9762H15.833L25.1895 26.0718H23.1565" fill="#0F0F0F"/>
</svg>
