<svg width="158" height="38" viewBox="0 0 158 38" fill="none" xmlns="http://www.w3.org/2000/svg">
<path d="M53.9275 13.4723V23.9487L42.9243 12.4473V28.5493H45.2033V17.9946L56.2065 29.4647V13.4723H53.9275Z" fill="white"/>
<path d="M81.8232 13.4723L77.5943 23.9252L73.4201 13.4723H70.9297L77.5394 29.6838L84.3137 13.4723H81.8232Z" fill="white"/>
<path d="M68.6507 28.5493H68.6742L68.6507 28.5414V28.5493Z" fill="white"/>
<path d="M104.738 15.3188C106.148 15.3188 107.503 15.8665 108.826 16.9697V14.2782C107.557 13.5505 106.25 13.1828 104.895 13.1828C102.412 13.1828 100.392 14.0982 98.8332 15.9447C97.5645 17.4469 96.9302 19.1604 96.9302 21.0851C96.9302 23.2289 97.6898 25.0519 99.2091 26.5698C100.736 28.072 102.577 28.8231 104.73 28.8231C106.163 28.8231 107.534 28.4554 108.834 27.7121V24.9658C108.466 25.2788 108.106 25.5448 107.777 25.7639C107.44 25.983 107.119 26.1629 106.806 26.2959C106.242 26.5541 105.56 26.6871 104.762 26.6871C103.211 26.6871 101.903 26.1395 100.83 25.0597C99.7652 23.9722 99.2248 22.6421 99.2248 21.0616C99.2248 19.4812 99.7573 18.1041 100.83 17.001C101.895 15.8899 103.203 15.3344 104.746 15.3344" fill="white"/>
<path d="M122.696 25.0441C121.607 26.1316 120.276 26.6793 118.694 26.6793C117.229 26.6793 115.945 26.1395 114.833 25.0676C113.713 23.9957 113.149 22.6265 113.149 20.9599C113.149 19.2934 113.69 18.0416 114.77 16.9618C115.851 15.8665 117.175 15.3266 118.749 15.3266C120.323 15.3266 121.646 15.8743 122.719 16.9618C123.792 18.0494 124.325 19.3951 124.325 20.999C124.325 22.603 123.784 23.9331 122.696 25.0363M124.301 15.4909C122.766 13.9574 120.918 13.1906 118.772 13.1906C116.626 13.1906 114.731 13.9496 113.18 15.4674C111.622 16.9931 110.847 18.8161 110.847 20.9365C110.847 23.3541 111.7 25.3023 113.408 26.7967C114.958 28.1424 116.705 28.8153 118.655 28.8153C120.855 28.8153 122.735 28.0564 124.293 26.5385C125.844 25.0284 126.619 23.1898 126.619 21.0225C126.619 18.8553 125.844 17.0244 124.301 15.4909Z" fill="white"/>
<path d="M94.565 28.5493H94.5885L94.5572 28.5414L94.565 28.5493Z" fill="white"/>
<path d="M150.02 24.9815C149.472 25.4744 148.861 25.8343 148.179 26.0612C147.506 26.2803 146.652 26.3898 145.634 26.3898H144.608V15.5926H145.634C147.576 15.5926 149.049 16.0464 150.043 16.9618C151.147 17.9946 151.704 19.3325 151.704 20.9834C151.704 22.6343 151.147 23.9565 150.028 24.9737M151.664 15.3892C150.897 14.685 150.043 14.1843 149.096 13.8948C148.218 13.5975 147.02 13.441 145.501 13.441H142.337V28.518H145.462C146.989 28.518 148.172 28.3771 149.009 28.0955C149.902 27.8138 150.756 27.3131 151.57 26.6011C153.191 25.1693 154.006 23.2915 154.006 20.9834C154.006 18.6753 153.223 16.8053 151.672 15.3892" fill="white"/>
<path d="M136.471 24.0583L139.612 28.5258H136.847L134.075 24.5825H133.221V22.5013H134.114C136.041 22.5013 137.599 20.9365 137.599 19.0196C137.599 17.1027 136.033 15.5379 134.114 15.5379H131.749V28.5336H129.47V13.4567H134.106C137.176 13.4567 139.674 15.9525 139.674 19.0196C139.674 21.2494 138.359 23.1741 136.463 24.0583" fill="white"/>
<path d="M68.6507 28.604H68.6742L68.6507 28.5962V28.604Z" fill="white"/>
<path d="M94.565 28.604H94.5885L94.5572 28.5962L94.565 28.604Z" fill="white"/>
<path d="M30.5584 37.5L15.4593 0.5L0 37.5H3.8844L13.1334 33.9635L8.86522 32.3361L5.66999 33.5567L7.00917 30.2627L25.977 37.5H30.5584ZM15.3575 9.6698L24.6848 33.0325L8.40317 26.8202L15.3575 9.6698Z" fill="white"/>
<path d="M156.637 15.5144L157.029 16.0699H156.684L156.34 15.577H156.23V15.3188H156.34C156.583 15.3188 156.77 15.1232 156.77 14.8885C156.77 14.6537 156.575 14.4581 156.34 14.4581H156.042V16.0777H155.76V14.1999H156.34C156.723 14.1999 157.037 14.5129 157.037 14.8963C157.037 15.1701 156.872 15.4127 156.637 15.5222V15.5144Z" fill="white"/>
<path d="M156.324 16.821C155.4 16.821 154.648 16.0699 154.648 15.1466C154.648 14.2234 155.4 13.4723 156.324 13.4723C157.248 13.4723 158 14.2234 158 15.1466C158 16.0699 157.248 16.821 156.324 16.821ZM156.324 13.754C155.557 13.754 154.93 14.3799 154.93 15.1466C154.93 15.9134 155.557 16.5393 156.324 16.5393C157.092 16.5393 157.718 15.9134 157.718 15.1466C157.718 14.3799 157.092 13.754 156.324 13.754Z" fill="white"/>
<path d="M72.3707 28.6432L65.7296 12.3691L58.9318 28.6432H61.4379L65.6826 18.1511L67.9615 23.8548H65.6826L64.6958 26.2881H68.9326L69.8724 28.6432H72.3707Z" fill="white"/>
<path d="M96.0374 28.6432L89.3963 12.3691L82.6064 28.6432H85.1046L89.3493 18.1511L91.6283 23.8548H89.3493L88.3625 26.2881H92.5994L93.5391 28.6432H96.0374Z" fill="white"/>
</svg>
