<svg width="19" height="20" viewBox="0 0 19 20" fill="none" xmlns="http://www.w3.org/2000/svg">
<path d="M4.29021 6.74735H0.320068V19.4079H4.29021V6.74735Z" fill="white"/>
<path d="M15.0299 6.47305C14.8835 6.45475 14.728 6.44561 14.5725 6.43646C12.3496 6.34498 11.0963 7.66226 10.6572 8.22942C10.5383 8.38494 10.4834 8.47641 10.4834 8.47641V6.78407H6.6871V19.4446H10.6572C10.6572 18.1548 10.6572 16.8741 10.6572 15.5842C10.6572 14.889 10.6572 14.1938 10.6572 13.4985C10.6572 12.6387 10.5932 11.7239 11.0232 10.9372C11.3891 10.2785 12.0477 9.94921 12.7887 9.94921C14.9841 9.94921 15.0299 11.9343 15.0299 12.1172C15.0299 12.1264 15.0299 12.1355 15.0299 12.1355V19.4995H19V11.239C19 8.41238 17.5638 6.74748 15.0299 6.47305Z" fill="white"/>
<path d="M2.30524 5.11048C3.57839 5.11048 4.61049 4.07839 4.61049 2.80524C4.61049 1.53209 3.57839 0.5 2.30524 0.5C1.03209 0.5 0 1.53209 0 2.80524C0 4.07839 1.03209 5.11048 2.30524 5.11048Z" fill="white"/>
</svg>
