<svg xmlns="http://www.w3.org/2000/svg" xmlns:xlink="http://www.w3.org/1999/xlink"><symbol id="arrow-b" viewBox="0 0 12 15">
<path d="M11.168 10.1127L10.0504 8.99512L6.43386 12.5609L4.86418 12.5609L1.23541 8.99512L0.167969 10.0619L4.27394 14.1685L7.11209 14.1685L11.168 10.1127Z" fill="#1B1B1B"/>
<path d="M6.43359 10.7007L6.43359 0.831055L4.86391 0.831055L4.86391 10.7007L6.43359 10.7007Z" fill="#1B1B1B"/>
</symbol><symbol id="arrow-l" viewBox="0 0 14 11">
<path d="M4.05043 0L5.16797 1.11753L1.60214 4.7341V6.30379L5.16797 9.93256L4.10117 11L-0.00544119 6.89403V4.05588L4.05043 0Z" fill="white"/>
<path d="M3.46241 4.73438H13.332V6.30406H3.46241V4.73438Z" fill="white"/>
</symbol><symbol id="arrow-r" viewBox="0 0 14 11">
    <path d="M9.2816 0L8.16406 1.11753L11.7299 4.7341V6.30379L8.16406 9.93256L9.23086 11L13.3375 6.89403V4.05588L9.2816 0Z" fill="white"/>
    <path d="M9.86962 4.73438H0V6.30406H9.86962V4.73438Z" fill="white"/>
</symbol><symbol id="footer_logo" viewBox="0 0 264 38">
<path d="M26.025 37.3174L9.25521 8.92909L0 8.90174L16.7642 37.2901L26.025 37.3174Z" fill="white"/>
<path d="M57.5933 0.394542L48.0536 0.367188L32.7788 25.9818L27.797 17.4636L17.6547 17.4308L29.8388 37.2736L29.8723 37.3284L35.5459 37.3448L57.5933 0.394542Z" fill="white"/>
<path d="M74.2586 26.4795L72.1553 19.2798L70.4538 19.2743L68.306 26.4631L66.5319 19.2634L64.1609 19.2525L67.2349 30.692L69.1261 30.6975L71.2906 23.7769L73.4106 30.7084L75.3074 30.7139L78.465 19.2962L76.094 19.2907L74.2586 26.4795Z" fill="white"/>
<path d="M80.6974 30.7305L88.3627 30.7524L88.3738 28.7665L82.9791 28.7501L82.9847 25.9599L87.5816 25.9763L87.5872 23.9904L82.9903 23.974L83.0015 21.2987L88.3961 21.3151L88.4017 19.3237L80.7365 19.3019L80.6974 30.7305Z" fill="white"/>
<path d="M97.9037 24.8603C97.4964 24.4882 96.8047 24.2366 95.8228 24.0943L94.4504 23.8974C93.993 23.8317 93.6638 23.7114 93.4685 23.5363C93.2733 23.3612 93.1506 23.2081 93.1004 23.0768C93.0501 22.9455 93.0278 22.7977 93.0278 22.6281C93.0278 22.2014 93.184 21.8513 93.4909 21.5887C93.7977 21.3206 94.244 21.1893 94.8298 21.1893C95.2761 21.1893 95.7056 21.2495 96.1129 21.3589C96.5201 21.4738 96.8883 21.6817 97.2119 21.9771L98.6568 20.5875C98.1547 20.1061 97.608 19.7614 97.0167 19.559C96.4253 19.3566 95.7168 19.2526 94.9023 19.2472C93.6471 19.2472 92.6596 19.559 91.9344 20.1936C91.2091 20.8282 90.841 21.6598 90.841 22.6993C90.841 23.6512 91.1031 24.3843 91.6331 24.904C92.1631 25.4238 92.9274 25.7575 93.9204 25.8943L95.3263 26.0912C95.5773 26.124 95.7837 26.1733 95.9455 26.2444C96.1073 26.3155 96.2747 26.4304 96.4532 26.5891C96.6261 26.7477 96.7154 27.0377 96.7098 27.4535C96.7098 28.3944 96.0181 28.8595 94.6457 28.8595C94.0655 28.8595 93.5411 28.7829 93.0669 28.6297C92.5927 28.4765 92.1799 28.2303 91.834 27.8911L90.3612 29.33C90.9135 29.888 91.5271 30.2764 92.2022 30.5062C92.8772 30.7305 93.675 30.8454 94.6011 30.8509C95.8674 30.8509 96.8995 30.55 97.7084 29.9372C98.5174 29.3245 98.9246 28.482 98.9246 27.3987C98.9246 26.8735 98.8577 26.414 98.7182 26.0091C98.5787 25.6098 98.3054 25.2213 97.8981 24.8548L97.9037 24.8603Z" fill="white"/>
<path d="M109.402 19.3894L101.051 19.362L101.045 21.3534L104.086 21.3589L104.058 30.8016L106.328 30.8071L106.356 21.3644L109.397 21.3753L109.402 19.3894Z" fill="white"/>
<path d="M122.571 30.8563L122.604 19.4277L120.334 19.4222L117.327 25.5824L114.303 19.4003L112.066 19.3949L112.033 30.8235L114.303 30.829L114.32 24.1655L116.546 28.4984L118.085 28.5039L120.323 24.1819L120.3 30.8509L122.571 30.8563Z" fill="white"/>
<path d="M133.151 29.7184C133.687 29.1987 134.016 28.6242 134.138 28.0005C134.261 27.3769 134.323 26.4304 134.328 25.1721C134.334 23.9138 134.272 23.0056 134.15 22.3601C134.027 21.7145 133.726 21.1565 133.257 20.6915C132.783 20.2264 132.292 19.8872 131.779 19.6793C131.265 19.4715 130.691 19.362 130.049 19.362C129.408 19.362 128.8 19.4605 128.292 19.6684C127.784 19.8763 127.293 20.21 126.819 20.675C126.345 21.1401 126.044 21.6872 125.921 22.3218C125.798 22.9564 125.737 23.9029 125.731 25.1502C125.731 26.4085 125.781 27.355 125.893 27.9787C126.005 28.6023 126.3 29.1549 126.78 29.6254C127.26 30.0959 127.751 30.4351 128.264 30.6484C128.777 30.8563 129.357 30.9657 130.01 30.9657C130.663 30.9657 131.26 30.8673 131.762 30.6594C132.264 30.4515 132.727 30.1396 133.157 29.7239L133.151 29.7184ZM130.016 28.9689C129.396 28.9689 128.933 28.7993 128.638 28.4656C128.337 28.1318 128.158 27.7762 128.091 27.3987C128.024 27.0212 127.996 26.2663 128.002 25.1447C128.002 24.056 128.041 23.312 128.113 22.9072C128.186 22.5078 128.32 22.1959 128.526 21.9771C128.727 21.7583 128.95 21.5942 129.196 21.4902C129.441 21.3863 129.72 21.3315 130.038 21.3315C130.646 21.3315 131.132 21.5394 131.489 21.9443C131.717 22.2014 131.868 22.5297 131.946 22.9236C132.019 23.3175 132.058 24.0615 132.052 25.1502C132.052 26.1842 132.007 26.9173 131.924 27.344C131.84 27.7708 131.656 28.1482 131.366 28.471C131.076 28.7938 130.624 28.9579 130.016 28.9579V28.9689Z" fill="white"/>
<path d="M143.608 19.4988L143.586 26.9118C143.586 27.5738 143.402 28.0881 143.034 28.4546C142.666 28.8212 142.175 29.0072 141.555 29.0017C140.936 28.9962 140.445 28.8102 140.088 28.4382C139.731 28.0607 139.553 27.5519 139.553 26.8954L139.575 19.4769H137.304L137.282 26.972C137.282 28.1701 137.684 29.1385 138.498 29.877C139.313 30.6156 140.328 30.9876 141.55 30.9931C142.783 30.9931 143.804 30.632 144.618 29.8989C145.433 29.1658 145.84 28.1975 145.846 26.9994L145.868 19.4988H143.608Z" fill="white"/>
<path d="M151.476 23.9357L156.062 30.9548L158.087 30.9603L158.12 19.5317L155.85 19.5262L155.828 26.5125L151.242 19.5152L149.217 19.5043L149.178 30.9329L151.454 30.9439L151.476 23.9357Z" fill="white"/>
<path d="M163.793 30.9767L166.063 30.9822L166.091 21.5449L169.131 21.5504L169.137 19.5645L160.786 19.5426L160.78 21.5285L163.82 21.5394L163.793 30.9767Z" fill="white"/>
<path d="M181.47 29.5379C181.821 29.1713 182.072 28.7665 182.217 28.3288C182.362 27.8966 182.435 27.3659 182.435 26.7587V24.8275L178.306 24.8165V25.763L181.375 25.7739V26.693C181.369 27.5957 181.101 28.3671 180.583 28.9908C180.064 29.609 179.327 29.9154 178.39 29.9154C177.988 29.9154 177.598 29.8388 177.241 29.691C176.878 29.5433 176.516 29.2862 176.147 28.9306C175.79 28.5805 175.584 28.1209 175.528 27.5574C175.472 26.983 175.444 26.135 175.45 25.0518C175.45 23.7989 175.506 22.8962 175.612 22.3656C175.712 21.8458 176.002 21.348 176.477 20.8884C176.945 20.4343 177.609 20.2046 178.44 20.2046C179.199 20.2046 179.846 20.4289 180.365 20.8611C180.884 21.2987 181.23 21.8951 181.391 22.6446L181.408 22.7212H182.474L182.451 22.6118C182.267 21.5887 181.81 20.7681 181.085 20.1663C180.359 19.5645 179.472 19.2581 178.44 19.2581C177.291 19.2581 176.348 19.6028 175.64 20.2866C174.937 20.9705 174.546 21.6544 174.485 22.3163C174.424 22.9564 174.39 23.8755 174.39 25.0518C174.39 26.4468 174.44 27.4535 174.552 28.0443C174.663 28.6461 174.948 29.1713 175.389 29.6035C175.824 30.0302 176.304 30.353 176.817 30.5609C177.33 30.7633 177.86 30.8728 178.396 30.8728C178.976 30.8728 179.545 30.7579 180.086 30.5226C180.627 30.2874 181.096 29.9646 181.481 29.5543L181.47 29.5379Z" fill="white"/>
<path d="M192.115 26.9501C192.115 27.8693 191.836 28.6024 191.3 29.1385C190.765 29.6746 190.04 29.9427 189.147 29.9427C188.254 29.9427 187.535 29.6582 186.999 29.1111C186.464 28.5641 186.196 27.831 186.196 26.9337L186.218 19.3511H185.153L185.13 27.0377C185.13 28.1647 185.504 29.1002 186.246 29.8114C186.988 30.5226 187.964 30.8837 189.141 30.8892C190.318 30.8892 191.295 30.5336 192.042 29.8278C192.79 29.1221 193.169 28.1866 193.175 27.0596L193.197 19.3675H192.132L192.109 26.9447L192.115 26.9501Z" fill="white"/>
<path d="M200.026 19.4551L200.004 19.3949H199.094L194.821 30.7032L194.771 30.8345H195.903L196.902 28.099L202.129 28.1154L203.111 30.8618H204.243L200.015 19.466L200.026 19.4551ZM201.783 27.158L197.264 27.1471L199.546 20.8994L201.789 27.1635L201.783 27.158Z" fill="white"/>
<path d="M213.151 24.6633C213.636 24.1217 213.888 23.4105 213.888 22.557C213.888 21.5832 213.57 20.8064 212.939 20.2538C212.309 19.7067 211.494 19.4277 210.524 19.4222L206.066 19.4113L206.033 30.8618H207.098L207.115 25.6754L210.094 25.6864L212.828 30.8837H214.066L211.305 25.6645C212.08 25.5113 212.705 25.1776 213.162 24.6633H213.151ZM207.126 20.3632L210.406 20.3742C211.148 20.3742 211.745 20.5656 212.18 20.9322C212.61 21.2987 212.828 21.8458 212.828 22.5625C212.828 23.2901 212.604 23.8372 212.175 24.1983C211.74 24.5594 211.137 24.7399 210.395 24.7399L207.115 24.729L207.126 20.3632Z" fill="white"/>
<path d="M219.34 19.4496L215.066 30.7579L215.016 30.8892H216.154L217.153 28.1537L222.38 28.1701L223.362 30.9165H224.494L220.243 19.4605H219.334L219.34 19.4496ZM222.029 27.2127L217.51 27.2018L219.791 20.9541L222.034 27.2182L222.029 27.2127Z" fill="white"/>
<path d="M233.755 29.0455L227.35 19.5207L227.322 19.4769L226.307 19.4715L226.273 30.922H227.333L227.361 21.3534L233.766 30.9001L233.794 30.9439H234.814L234.848 19.4933H233.782L233.755 29.0455Z" fill="white"/>
<path d="M236.902 20.4507L240.31 20.4617L240.277 30.9603L241.342 30.9657L241.376 20.4617L244.801 20.4726V19.5262L236.902 19.4988V20.4507Z" fill="white"/>
<path d="M246.822 30.9822L253.962 31.004L253.968 30.0521L247.887 30.0357L247.904 25.6864L253.081 25.7028V24.7508L247.904 24.7399L247.921 20.4836L253.996 20.5L254.001 19.5535L246.861 19.5316L246.822 30.9822Z" fill="white"/>
<path d="M263.613 20.5274V19.5809L256.472 19.559L256.439 31.0095L263.58 31.0314L263.585 30.085L257.504 30.0631L257.515 25.7137L262.698 25.7301V24.7837L257.521 24.7673L257.532 20.5109L263.613 20.5274Z" fill="white"/>
</symbol><symbol id="footer_logo_2" viewBox="0 0 158 38">
<path d="M53.9275 13.4723V23.9487L42.9243 12.4473V28.5493H45.2033V17.9946L56.2065 29.4647V13.4723H53.9275Z" fill="white"/>
<path d="M81.8232 13.4723L77.5943 23.9252L73.4201 13.4723H70.9297L77.5394 29.6838L84.3137 13.4723H81.8232Z" fill="white"/>
<path d="M68.6507 28.5493H68.6742L68.6507 28.5414V28.5493Z" fill="white"/>
<path d="M104.738 15.3188C106.148 15.3188 107.503 15.8665 108.826 16.9697V14.2782C107.557 13.5505 106.25 13.1828 104.895 13.1828C102.412 13.1828 100.392 14.0982 98.8332 15.9447C97.5645 17.4469 96.9302 19.1604 96.9302 21.0851C96.9302 23.2289 97.6898 25.0519 99.2091 26.5698C100.736 28.072 102.577 28.8231 104.73 28.8231C106.163 28.8231 107.534 28.4554 108.834 27.7121V24.9658C108.466 25.2788 108.106 25.5448 107.777 25.7639C107.44 25.983 107.119 26.1629 106.806 26.2959C106.242 26.5541 105.56 26.6871 104.762 26.6871C103.211 26.6871 101.903 26.1395 100.83 25.0597C99.7652 23.9722 99.2248 22.6421 99.2248 21.0616C99.2248 19.4812 99.7573 18.1041 100.83 17.001C101.895 15.8899 103.203 15.3344 104.746 15.3344" fill="white"/>
<path d="M122.696 25.0441C121.607 26.1316 120.276 26.6793 118.694 26.6793C117.229 26.6793 115.945 26.1395 114.833 25.0676C113.713 23.9957 113.149 22.6265 113.149 20.9599C113.149 19.2934 113.69 18.0416 114.77 16.9618C115.851 15.8665 117.175 15.3266 118.749 15.3266C120.323 15.3266 121.646 15.8743 122.719 16.9618C123.792 18.0494 124.325 19.3951 124.325 20.999C124.325 22.603 123.784 23.9331 122.696 25.0363M124.301 15.4909C122.766 13.9574 120.918 13.1906 118.772 13.1906C116.626 13.1906 114.731 13.9496 113.18 15.4674C111.622 16.9931 110.847 18.8161 110.847 20.9365C110.847 23.3541 111.7 25.3023 113.408 26.7967C114.958 28.1424 116.705 28.8153 118.655 28.8153C120.855 28.8153 122.735 28.0564 124.293 26.5385C125.844 25.0284 126.619 23.1898 126.619 21.0225C126.619 18.8553 125.844 17.0244 124.301 15.4909Z" fill="white"/>
<path d="M94.565 28.5493H94.5885L94.5572 28.5414L94.565 28.5493Z" fill="white"/>
<path d="M150.02 24.9815C149.472 25.4744 148.861 25.8343 148.179 26.0612C147.506 26.2803 146.652 26.3898 145.634 26.3898H144.608V15.5926H145.634C147.576 15.5926 149.049 16.0464 150.043 16.9618C151.147 17.9946 151.704 19.3325 151.704 20.9834C151.704 22.6343 151.147 23.9565 150.028 24.9737M151.664 15.3892C150.897 14.685 150.043 14.1843 149.096 13.8948C148.218 13.5975 147.02 13.441 145.501 13.441H142.337V28.518H145.462C146.989 28.518 148.172 28.3771 149.009 28.0955C149.902 27.8138 150.756 27.3131 151.57 26.6011C153.191 25.1693 154.006 23.2915 154.006 20.9834C154.006 18.6753 153.223 16.8053 151.672 15.3892" fill="white"/>
<path d="M136.471 24.0583L139.612 28.5258H136.847L134.075 24.5825H133.221V22.5013H134.114C136.041 22.5013 137.599 20.9365 137.599 19.0196C137.599 17.1027 136.033 15.5379 134.114 15.5379H131.749V28.5336H129.47V13.4567H134.106C137.176 13.4567 139.674 15.9525 139.674 19.0196C139.674 21.2494 138.359 23.1741 136.463 24.0583" fill="white"/>
<path d="M68.6507 28.604H68.6742L68.6507 28.5962V28.604Z" fill="white"/>
<path d="M94.565 28.604H94.5885L94.5572 28.5962L94.565 28.604Z" fill="white"/>
<path d="M30.5584 37.5L15.4593 0.5L0 37.5H3.8844L13.1334 33.9635L8.86522 32.3361L5.66999 33.5567L7.00917 30.2627L25.977 37.5H30.5584ZM15.3575 9.6698L24.6848 33.0325L8.40317 26.8202L15.3575 9.6698Z" fill="white"/>
<path d="M156.637 15.5144L157.029 16.0699H156.684L156.34 15.577H156.23V15.3188H156.34C156.583 15.3188 156.77 15.1232 156.77 14.8885C156.77 14.6537 156.575 14.4581 156.34 14.4581H156.042V16.0777H155.76V14.1999H156.34C156.723 14.1999 157.037 14.5129 157.037 14.8963C157.037 15.1701 156.872 15.4127 156.637 15.5222V15.5144Z" fill="white"/>
<path d="M156.324 16.821C155.4 16.821 154.648 16.0699 154.648 15.1466C154.648 14.2234 155.4 13.4723 156.324 13.4723C157.248 13.4723 158 14.2234 158 15.1466C158 16.0699 157.248 16.821 156.324 16.821ZM156.324 13.754C155.557 13.754 154.93 14.3799 154.93 15.1466C154.93 15.9134 155.557 16.5393 156.324 16.5393C157.092 16.5393 157.718 15.9134 157.718 15.1466C157.718 14.3799 157.092 13.754 156.324 13.754Z" fill="white"/>
<path d="M72.3707 28.6432L65.7296 12.3691L58.9318 28.6432H61.4379L65.6826 18.1511L67.9615 23.8548H65.6826L64.6958 26.2881H68.9326L69.8724 28.6432H72.3707Z" fill="white"/>
<path d="M96.0374 28.6432L89.3963 12.3691L82.6064 28.6432H85.1046L89.3493 18.1511L91.6283 23.8548H89.3493L88.3625 26.2881H92.5994L93.5391 28.6432H96.0374Z" fill="white"/>
</symbol><symbol id="insta" viewBox="0 0 20 21">
<path d="M10.0059 2.30113C12.6793 2.30113 12.9959 2.31285 14.0473 2.35974C15.0244 2.40272 15.5521 2.56681 15.9038 2.70356C16.369 2.88328 16.7051 3.10207 17.053 3.4498C17.4047 3.80143 17.6197 4.13352 17.7995 4.59846C17.9363 4.95009 18.1004 5.48144 18.1434 6.45429C18.1903 7.50918 18.2021 7.82565 18.2021 10.4941C18.2021 13.1665 18.1903 13.483 18.1434 14.534C18.1004 15.5107 17.9363 16.0382 17.7995 16.3898C17.6197 16.8548 17.4008 17.1908 17.053 17.5385C16.7012 17.8901 16.369 18.105 15.9038 18.2847C15.5521 18.4215 15.0205 18.5856 14.0473 18.6285C12.992 18.6754 12.6754 18.6871 10.0059 18.6871C7.33242 18.6871 7.01583 18.6754 5.96443 18.6285C4.9873 18.5856 4.45964 18.4215 4.10788 18.2847C3.64276 18.105 3.30662 17.8862 2.95876 17.5385C2.607 17.1869 2.39203 16.8548 2.21223 16.3898C2.07543 16.0382 1.91128 15.5068 1.86828 14.534C1.82138 13.4791 1.80965 13.1626 1.80965 10.4941C1.80965 7.82174 1.82138 7.50527 1.86828 6.45429C1.91128 5.47753 2.07543 4.95009 2.21223 4.59846C2.39203 4.13352 2.6109 3.79752 2.95876 3.4498C3.31053 3.09816 3.64276 2.88328 4.10788 2.70356C4.45964 2.56681 4.99121 2.40272 5.96443 2.35974C7.01583 2.31285 7.33242 2.30113 10.0059 2.30113ZM10.0059 0.5C7.28943 0.5 6.94938 0.511721 5.88235 0.558605C4.81923 0.605489 4.08833 0.777398 3.45515 1.02354C2.79461 1.2814 2.23569 1.62131 1.68067 2.18002C1.12175 2.73481 0.781708 3.29351 0.523744 3.94989C0.277506 4.58674 0.105531 5.31344 0.0586281 6.37615C0.0117256 7.44667 0 7.78658 0 10.502C0 13.2173 0.0117256 13.5572 0.0586281 14.6239C0.105531 15.6866 0.277506 16.4172 0.523744 17.0501C0.781708 17.7104 1.12175 18.2691 1.68067 18.8239C2.23569 19.3787 2.79461 19.7225 3.45124 19.9765C4.08833 20.2226 4.81532 20.3945 5.87844 20.4414C6.94548 20.4883 7.28552 20.5 10.002 20.5C12.7184 20.5 13.0584 20.4883 14.1255 20.4414C15.1886 20.3945 15.9195 20.2226 16.5527 19.9765C17.2093 19.7225 17.7682 19.3787 18.3232 18.8239C18.8782 18.2691 19.2222 17.7104 19.4763 17.054C19.7225 16.4172 19.8945 15.6905 19.9414 14.6278C19.9883 13.5611 20 13.2212 20 10.5059C20 7.79049 19.9883 7.45058 19.9414 6.38396C19.8945 5.32125 19.7225 4.59064 19.4763 3.95771C19.23 3.29351 18.89 2.73481 18.3311 2.18002C17.776 1.62522 17.2171 1.2814 16.5605 1.02745C15.9234 0.781305 15.1964 0.609396 14.1333 0.562512C13.0623 0.511721 12.7223 0.5 10.0059 0.5Z" fill="white"/>
<path d="M10.0059 5.36423C7.16826 5.36423 4.86613 7.66546 4.86613 10.502C4.86613 13.3384 7.16826 15.6397 10.0059 15.6397C12.8435 15.6397 15.1456 13.3384 15.1456 10.502C15.1456 7.66546 12.8435 5.36423 10.0059 5.36423ZM10.0059 13.8346C8.16494 13.8346 6.67188 12.3422 6.67188 10.502C6.67188 8.66175 8.16494 7.16927 10.0059 7.16927C11.8468 7.16927 13.3398 8.66175 13.3398 10.502C13.3398 12.3422 11.8468 13.8346 10.0059 13.8346Z" fill="white"/>
<path d="M16.5488 5.16108C16.5488 5.82527 16.0094 6.36053 15.3488 6.36053C14.6844 6.36053 14.1489 5.82137 14.1489 5.16108C14.1489 4.49689 14.6883 3.96162 15.3488 3.96162C16.0094 3.96162 16.5488 4.50079 16.5488 5.16108Z" fill="white"/>
</symbol><symbol id="label_icon" viewBox="0 0 11 11">
<path fill-rule="evenodd" clip-rule="evenodd" d="M0 8.16797L2.83203 11H8.23438L11 8.23438V2.83154L8.16846 0H2.89794L0 2.89794V8.16797Z"/>
</symbol><symbol id="lin" viewBox="0 0 19 20">
<path d="M4.29021 6.74735H0.320068V19.4079H4.29021V6.74735Z" fill="white"/>
<path d="M15.0299 6.47305C14.8835 6.45475 14.728 6.44561 14.5725 6.43646C12.3496 6.34498 11.0963 7.66226 10.6572 8.22942C10.5383 8.38494 10.4834 8.47641 10.4834 8.47641V6.78407H6.6871V19.4446H10.6572C10.6572 18.1548 10.6572 16.8741 10.6572 15.5842C10.6572 14.889 10.6572 14.1938 10.6572 13.4985C10.6572 12.6387 10.5932 11.7239 11.0232 10.9372C11.3891 10.2785 12.0477 9.94921 12.7887 9.94921C14.9841 9.94921 15.0299 11.9343 15.0299 12.1172C15.0299 12.1264 15.0299 12.1355 15.0299 12.1355V19.4995H19V11.239C19 8.41238 17.5638 6.74748 15.0299 6.47305Z" fill="white"/>
<path d="M2.30524 5.11048C3.57839 5.11048 4.61049 4.07839 4.61049 2.80524C4.61049 1.53209 3.57839 0.5 2.30524 0.5C1.03209 0.5 0 1.53209 0 2.80524C0 4.07839 1.03209 5.11048 2.30524 5.11048Z" fill="white"/>
</symbol></svg>